<?xml version="1.0" encoding="UTF-8"?>
<svg version="1.1" xmlns="http://www.w3.org/2000/svg" width="1024" height="1024">
<path d="M0 0 C0.52722656 0.15855469 1.05445313 0.31710937 1.59765625 0.48046875 C4.56015975 1.12114024 7.40880031 1.19217708 10.4375 1.3125 C24.07553821 2.26037195 36.36696065 6.75428986 45.9375 16.8125 C49.40938253 21.08366483 51.35020501 25.78451908 53 31 C53.19722656 31.61875 53.39445313 32.2375 53.59765625 32.875 C54.16115542 35.85115097 54.09275467 38.72453251 54.0625 41.75 C54.05347656 42.92046875 54.04445313 44.0909375 54.03515625 45.296875 C54.01775391 46.63492188 54.01775391 46.63492188 54 48 C51.08503169 48.8397028 48.1682814 49.67196003 45.25 50.5 C44.425 50.73847656 43.6 50.97695313 42.75 51.22265625 C41.95078125 51.44824219 41.1515625 51.67382812 40.328125 51.90625 C39.22839355 52.22045898 39.22839355 52.22045898 38.10644531 52.54101562 C36 53 36 53 32 53 C32.165 51.906875 32.33 50.81375 32.5 49.6875 C33.90464329 37.95459719 33.24378192 26.74316041 26.3828125 16.71875 C22.67169419 12.10606058 18.76227472 9.53345412 13 8 C2.30350167 6.87391169 -7.36038274 7.22069051 -16.125 13.9375 C-25.45438056 22.69868645 -28.82038531 36.20382164 -29.22094727 48.64428711 C-29.29269827 53.66011831 -29.21584435 58.67241396 -29.125 63.6875 C-29.08982211 66.27307467 -29.05912061 68.85860163 -29.03366089 71.44429016 C-29.01679337 73.03811157 -28.99374298 74.63188302 -28.96365356 76.22550964 C-28.91984259 79.43716122 -28.97582872 81.92748615 -30 85 C-19.46291276 86.03524294 -9.02570967 86.1311986 1.55078125 86.09765625 C3.30340026 86.09578656 5.0560198 86.09436527 6.80863953 86.09336853 C11.37712091 86.08958668 15.94556949 86.07979444 20.51403809 86.06866455 C25.193599 86.05835625 29.87316533 86.05385091 34.55273438 86.04882812 C43.70183717 86.03816741 52.85091584 86.02114436 62 86 C62 87.32 62 88.64 62 90 C61.24074219 90.18175781 60.48148438 90.36351562 59.69921875 90.55078125 C58.70535156 90.80214844 57.71148438 91.05351562 56.6875 91.3125 C55.70136719 91.55613281 54.71523438 91.79976563 53.69921875 92.05078125 C50.93314977 93.02350884 49.71740152 93.6601099 48 96 C44.91038537 104.60034447 51.96545286 116.07789452 55.375 123.8125 C55.90851405 125.03801783 56.44129206 126.26385631 56.97338867 127.48999023 C58.08527477 130.04909316 59.20125544 132.60634804 60.32080078 135.16210938 C62.47021646 140.0703631 64.59885469 144.98758403 66.72827148 149.90454102 C67.78544467 152.34553744 68.84355209 154.78612946 69.90258789 157.22631836 C76.65772441 172.79344428 83.32628406 188.39784032 90 204 C91.11058169 201.33305175 92.21820142 198.66493452 93.32421875 195.99609375 C93.63452026 195.25178101 93.94482178 194.50746826 94.26452637 193.74060059 C96.27000117 188.89348782 98.10006593 184.02090104 99.8125 179.0625 C100.07232666 178.31057373 100.33215332 177.55864746 100.59985352 176.78393555 C100.81569092 176.157854 101.03152832 175.53177246 101.25390625 174.88671875 C103.84179966 167.52165885 106.72652222 160.26421029 109.57348633 152.99633789 C112.12930729 146.47816786 112.12930729 146.47816786 114.171875 139.7890625 C114.44515625 138.86867188 114.7184375 137.94828125 115 137 C115.66 136.67 116.32 136.34 117 136 C117.3516485 134.00313885 117.67966043 132.00212229 118 130 C118.91521627 126.88884028 119.9708311 123.82506319 121 120.75 C125.09399172 109.07034149 125.09399172 109.07034149 123.9375 97.0625 C120.63431846 91.84134208 115.68891308 90.76085405 110 89 C110 88.34 110 87.68 110 87 C115.05875986 85.97466474 119.87830049 85.86974244 125.01171875 85.90234375 C126.28678032 85.90446617 126.28678032 85.90446617 127.58760071 85.90663147 C130.28760391 85.912199 132.98752219 85.92473586 135.6875 85.9375 C137.51367066 85.94252007 139.33984264 85.94708209 141.16601562 85.95117188 C144.50221439 85.95932528 147.83838181 85.96998488 151.17456055 85.98413086 C153.4496936 85.99356884 155.72484737 86 158 86 C157.67 87.32 157.34 88.64 157 90 C155.824375 90.2475 154.64875 90.495 153.4375 90.75 C144.07775339 93.23386949 140.88163981 97.11900692 136.03808594 105.30541992 C132.74295627 111.12095774 130.30514357 117.28619806 127.875 123.5 C127.32082966 124.89073336 126.76595937 126.28118798 126.21044922 127.67138672 C121.4469692 139.64791873 116.90936992 151.71194668 112.37695312 163.77734375 C61.79689332 298.32240449 61.79689332 298.32240449 22.16796875 318.4375 C3.51700478 326.82668861 -17.70016506 327.62796963 -37 321 C-48.53339358 316.30385336 -57.82819886 308.50855926 -62.93359375 297.046875 C-65.64681734 289.2948076 -65.84517025 282.80978514 -62.359375 275.2890625 C-57.76767614 267.55706385 -51.18757261 263.4830427 -42.70703125 261.05859375 C-33.59211783 258.80262739 -33.59211783 258.80262739 -30 260 C-30.7425 260.66 -31.485 261.32 -32.25 262 C-37.57409457 267.30896931 -40.1064829 274.26049018 -40.25 281.6875 C-40.11611333 289.97630213 -37.81249674 296.10941119 -32.07421875 302.1484375 C-22.3861028 310.7965862 -11.2439598 313.62476768 1.52734375 313.27734375 C20.63978233 311.75092852 36.46783686 300.9420315 49 287 C56.38331026 277.95264823 63.62933232 267.25258252 67 256 C67.66 256 68.32 256 69 256 C69.33 253.69 69.66 251.38 70 249 C70.66 249 71.32 249 72 249 C75.69846427 236.5176831 73.31356912 227.7528304 68.71972656 215.92382812 C68.05782242 214.15455926 67.48895209 212.35121769 66.9296875 210.546875 C66.27637855 207.85200155 66.27637855 207.85200155 64 207 C62.82159144 204.36713252 61.73396561 201.74729403 60.6875 199.0625 C58.35556265 193.21677649 55.91590325 187.53803091 52.9453125 181.98046875 C52 180 52 180 51.52734375 178.09765625 C50.82646904 175.3097324 49.64700369 172.85508488 48.4375 170.25 C47.98246094 169.26515625 47.52742187 168.2803125 47.05859375 167.265625 C46.53458984 166.14414062 46.53458984 166.14414062 46 165 C45.34 165 44.68 165 44 165 C43 162 43 162 43 158 C41.98283681 155.2615956 41.98283681 155.2615956 40.54296875 152.328125 C40.0126001 151.19987305 39.48223145 150.07162109 38.93579102 148.90917969 C38.35327127 147.68933661 37.7705019 146.46961271 37.1875 145.25 C36.29306505 143.36064842 35.40093233 141.47022227 34.50907898 139.57965088 C33.90149091 138.29192173 33.29301354 137.00461183 32.68367004 135.7177124 C30.70548107 131.53120409 28.78398761 127.32306707 26.8984375 123.09375 C26.41866455 122.0222168 25.9388916 120.95068359 25.44458008 119.84667969 C24.54905596 117.84017414 23.66042294 115.83057307 22.7800293 113.81738281 C20.14053658 107.94310093 17.09899504 102.96687522 13 98 C12.360625 97.21625 11.72125 96.4325 11.0625 95.625 C6.21863368 91.80862047 0.25069156 91.75702256 -5.68359375 91.8046875 C-6.38396255 91.8075174 -7.08433136 91.81034729 -7.80592346 91.81326294 C-10.0166317 91.82435115 -12.22691671 91.84943297 -14.4375 91.875 C-15.94725972 91.88504454 -17.45702588 91.8941678 -18.96679688 91.90234375 C-22.64466597 91.92425286 -26.3222916 91.95870242 -30 92 C-29.93943996 108.06409186 -29.86192213 124.12799882 -29.76428509 140.19190407 C-29.71934342 147.65087088 -29.67992505 155.10979012 -29.65356445 162.56884766 C-29.63057111 169.07111608 -29.59715829 175.57323376 -29.55129844 182.07538259 C-29.52738403 185.51738613 -29.50864367 188.95924054 -29.50238609 192.40132523 C-29.4952005 196.24639484 -29.46474991 200.0910911 -29.43237305 203.93603516 C-29.43380814 205.07395508 -29.43524323 206.211875 -29.4367218 207.38427734 C-29.36996529 212.9832991 -29.23468011 217.20130591 -26 222 C-23.18373852 224.7102098 -20.68278175 225.54527621 -16.875 226.25 C-16.00617188 226.42015625 -15.13734375 226.5903125 -14.2421875 226.765625 C-11.96540817 227.20677813 -11.96540817 227.20677813 -10 226 C-9.67 227.65 -9.34 229.3 -9 231 C-21.2290631 232.30318749 -33.4641269 232.1455664 -45.74609375 232.1328125 C-48.04810089 232.13348755 -50.35010797 232.13445924 -52.65211487 232.13571167 C-57.45892012 232.13717949 -62.2657067 232.13506387 -67.07250977 232.13037109 C-73.19929462 232.12467762 -79.32603562 232.12795627 -85.45281887 232.13394356 C-90.20148543 232.13757673 -94.95014179 232.13639792 -99.69880867 232.13381577 C-101.95639107 232.13315394 -104.21397443 232.13394855 -106.47155571 232.13629532 C-118.0252811 232.1456718 -129.48877285 232.10855819 -141 231 C-140 229 -140 229 -137.5 228.0625 C-135.57301642 227.47752284 -133.64398711 226.89871524 -131.70703125 226.34765625 C-130.91683594 226.10917969 -130.12664062 225.87070312 -129.3125 225.625 C-128.56613281 225.41101563 -127.81976563 225.19703125 -127.05078125 224.9765625 C-124.45213462 223.73911172 -123.5654452 222.40075156 -122 220 C-118.51853621 210.07281889 -119.71020014 198.2961035 -119.734375 187.93359375 C-119.73302529 185.88818821 -119.73108222 183.84278299 -119.72857666 181.79737854 C-119.72564046 177.52675295 -119.72987489 173.25621146 -119.73925781 168.9855957 C-119.75065864 163.53315007 -119.74407923 158.08090124 -119.73211288 152.62846279 C-119.72485976 148.41008542 -119.72719792 144.19175413 -119.73236847 139.97337532 C-119.73369505 137.96368448 -119.73209233 135.95398934 -119.72740936 133.94430351 C-119.72228626 131.12869167 -119.73013459 128.31339157 -119.74121094 125.49780273 C-119.73716248 124.6814183 -119.73311401 123.86503387 -119.72894287 123.02391052 C-119.62265738 112.71333661 -119.62265738 112.71333661 -124 104 C-126.42715206 103.32059533 -126.42715206 103.32059533 -129.125 102.875 C-130.03507812 102.70742188 -130.94515625 102.53984375 -131.8828125 102.3671875 C-132.93082031 102.18542969 -132.93082031 102.18542969 -134 102 C-134 101.01 -134 100.02 -134 99 C-132.72382813 98.5978125 -132.72382813 98.5978125 -131.421875 98.1875 C-122.68047531 95.36049414 -114.17605244 92.15058717 -105.70410156 88.59179688 C-104.89038086 88.25599609 -104.07666016 87.92019531 -103.23828125 87.57421875 C-102.51680908 87.27088623 -101.79533691 86.96755371 -101.05200195 86.6550293 C-99 86 -99 86 -95 86 C-95 128.9 -95 171.8 -95 216 C-94.34 216.33 -93.68 216.66 -93 217 C-92.71125 217.78375 -92.4225 218.5675 -92.125 219.375 C-90.80734048 222.44953888 -89.81812228 223.25982158 -87 225 C-84.29832187 225.74776508 -84.29832187 225.74776508 -81.4375 226.125 C-78.46902005 226.58416786 -75.85662662 227.04779113 -73 228 C-67.95573122 227.24528498 -63.35069111 226.153029 -59.4375 222.8125 C-55.74960523 215.59705372 -55.72256145 208.4484026 -55.78881836 200.52270508 C-55.79078972 198.83587868 -55.79078972 198.83587868 -55.7928009 197.11497498 C-55.79926577 193.4164065 -55.81968408 189.71804815 -55.83984375 186.01953125 C-55.84611772 183.4421969 -55.85135663 180.86485984 -55.85560608 178.28752136 C-55.86753146 172.20569804 -55.88765514 166.12395864 -55.91250378 160.04217595 C-55.95957781 148.5001434 -55.99231573 136.95809179 -56.0170002 125.41599083 C-56.02722405 121.626399 -56.04427201 117.83688073 -56.06199646 114.0473175 C-56.06882383 111.72791611 -56.07543258 109.40851406 -56.08178711 107.08911133 C-56.08852448 106.0349704 -56.09526184 104.98082947 -56.10220337 103.89474487 C-56.10371902 102.92339096 -56.10523468 101.95203705 -56.10679626 100.95124817 C-56.11031569 100.11082379 -56.11383512 99.27039942 -56.1174612 98.40450764 C-55.99282885 95.85320188 -55.56053522 93.48898424 -55 91 C-55.97610229 91.06900513 -55.97610229 91.06900513 -56.97192383 91.1394043 C-59.91794244 91.33847027 -62.86491397 91.51324943 -65.8125 91.6875 C-66.83666016 91.76033203 -67.86082031 91.83316406 -68.91601562 91.90820312 C-69.89892578 91.96298828 -70.88183594 92.01777344 -71.89453125 92.07421875 C-72.80050049 92.13182373 -73.70646973 92.18942871 -74.63989258 92.2487793 C-77 92 -77 92 -78.8190918 90.49536133 C-79.2087915 90.00189209 -79.59849121 89.50842285 -80 89 C-79.505 87.515 -79.505 87.515 -79 86 C-67.615 85.505 -67.615 85.505 -56 85 C-55.97421875 83.10378906 -55.9484375 81.20757812 -55.921875 79.25390625 C-55.45165313 55.31992841 -53.65368247 34.55970259 -35.890625 16.6640625 C-25.5892098 7.17005552 -13.91377898 2.53825064 0 2 C0 1.34 0 0.68 0 0 Z " fill="#3E281B" transform="translate(589,320)"/>
<path d="M0 0 C14.43991944 0.03736892 28.87959029 0.09777943 43.31930447 0.18390274 C50.02578717 0.22350562 56.73213399 0.25549915 63.4387207 0.27099609 C69.9228248 0.28624901 76.40657463 0.32084679 82.8905201 0.36830902 C85.35213182 0.38303418 87.81379414 0.39103586 90.27544975 0.39188385 C114.16605292 0.40837561 136.69830429 2.80004976 154.6875 20.3125 C158 23.69138277 158 23.69138277 158 26 C158.66 26 159.32 26 160 26 C170.00867841 44.5196211 174.46939757 63.04821961 169.4375 84 C166.31158516 94.07361954 161.49677377 103.50322623 154 111 C153.34 111 152.68 111 152 111 C152 111.66 152 112.32 152 113 C134.03086365 127.04280932 112.56241585 129.1952208 90.578125 129.09765625 C88.73912628 129.09553383 88.73912628 129.09553383 86.86297607 129.09336853 C82.99195799 129.08782315 79.12100026 129.07528115 75.25 129.0625 C72.60677168 129.05747793 69.96354243 129.05291627 67.3203125 129.04882812 C60.88018815 129.03787167 54.44009839 129.02118896 48 129 C48.10823955 137.51126628 48.22101075 146.02245604 48.33933926 154.53358746 C48.39416474 158.48696643 48.4475131 162.44035311 48.49731445 166.39379883 C48.54556243 170.21938856 48.59791404 174.04490337 48.65294075 177.87040138 C48.6730946 179.31937572 48.69184658 180.76837035 48.70907402 182.21738243 C48.01131195 201.59174393 48.01131195 201.59174393 55 219 C58.71691184 221.76021106 62.3170522 222.73392016 66.8125 223.6875 C67.97394531 223.93886719 69.13539063 224.19023438 70.33203125 224.44921875 C71.21246094 224.63097656 72.09289062 224.81273437 73 225 C73 225.99 73 226.98 73 228 C56.34383505 228.89821607 39.74030792 229.12573226 23.0625 229.0625 C20.71028743 229.05746592 18.3580738 229.05290645 16.00585938 229.04882812 C10.33721567 229.03799439 4.66861312 229.02141298 -1 229 C-1 227.68 -1 226.36 -1 225 C-0.14277344 224.84144531 0.71445313 224.68289063 1.59765625 224.51953125 C8.52851672 223.10522939 13.82267213 221.94722441 19 217 C21.01490166 212.35903636 21.2867185 208.02914138 21.26069641 203.04324341 C21.26452196 202.25971933 21.26834751 201.47619526 21.27228898 200.66892803 C21.28257834 198.05281666 21.27863458 195.43692644 21.2746582 192.82080078 C21.27900694 190.94129229 21.28419063 189.06178558 21.29014587 187.18228149 C21.30353009 182.08306871 21.30411515 176.98393008 21.30158257 171.88470316 C21.30051241 167.62529749 21.30539743 163.36590679 21.310188 159.10650432 C21.32128132 149.05618028 21.32172165 139.00589361 21.31567383 128.95556641 C21.30963415 118.59341222 21.32194533 108.23139383 21.3432439 97.86926281 C21.3608675 88.96717086 21.36686003 80.06512209 21.36360615 71.16301334 C21.36179427 65.84866003 21.36442001 60.53440356 21.37832069 55.22006607 C21.39090661 50.22136527 21.38894763 45.22287591 21.37590981 40.22417831 C21.3735461 38.39244261 21.37627132 36.56069199 21.38453293 34.72897339 C21.3950197 32.22264625 21.38688453 29.71702607 21.3742218 27.21072388 C21.38159609 26.49105725 21.38897037 25.77139063 21.39656812 25.02991593 C21.34006012 19.68973859 20.15899562 15.81177455 18 11 C13.72141679 6.82838137 10.13746667 5.91720314 4.3125 5.4375 C3.31863281 5.35371094 2.32476562 5.26992188 1.30078125 5.18359375 C0.16189453 5.09271484 0.16189453 5.09271484 -1 5 C-0.67 3.35 -0.34 1.7 0 0 Z M48 5 C47.97661126 19.48208756 47.95905803 33.96417217 47.94818783 48.44627476 C47.94303756 55.17097671 47.93601908 61.89566692 47.92456055 68.62036133 C47.91369074 75.11073367 47.90771446 81.6010938 47.90512276 88.09147453 C47.9032759 90.56696706 47.89966948 93.04245892 47.89426994 95.51794624 C47.88700525 98.98666958 47.88601136 102.45534254 47.88647461 105.92407227 C47.88287933 106.94618805 47.87928406 107.96830383 47.87557983 109.02139282 C47.88294993 114.12546933 48.11701614 118.97022018 49 124 C55.82766662 124.10263843 62.65512958 124.17197643 69.48339844 124.21972656 C71.79922926 124.2396629 74.11501095 124.26682197 76.43066406 124.30175781 C96.04952717 124.59002114 113.79691644 124.21960591 129.1875 110.5 C141.60307955 97.28017238 143.72794878 79.47314561 143.28515625 62.13671875 C142.68896627 48.65384503 139.22875803 35.89100327 131 25 C130.29810547 24.06414062 130.29810547 24.06414062 129.58203125 23.109375 C122.26742982 14.0052155 112.31825358 8.5351305 101 6 C98.41602602 5.7358803 95.88245034 5.53018242 93.29296875 5.40234375 C92.19366783 5.34319542 92.19366783 5.34319542 91.07215881 5.28285217 C82.36274423 4.85733097 73.65471362 4.89048542 64.9375 4.9375 C63.28060034 4.94253518 61.62369917 4.94709445 59.96679688 4.95117188 C55.97782584 4.96199438 51.98893065 4.97914243 48 5 Z " fill="#3F281C" transform="translate(161,323)"/>
<path d="M0 0 C7.10572418 6.70996232 10.91808782 17.84618806 11.26501465 27.46540833 C11.28218532 28.95708285 11.28904149 30.44890173 11.28710938 31.94067383 C11.29394241 32.76297989 11.30077545 33.58528595 11.30781555 34.43251038 C11.32132406 36.20463682 11.33042811 37.97680134 11.33552551 39.74897194 C11.34387898 42.56298174 11.3644441 45.37667691 11.38806152 48.19059753 C11.43609883 54.16868441 11.46913317 60.14680305 11.5 66.125 C11.53581244 73.04766926 11.5779547 79.97018387 11.63594055 86.89270592 C11.65582606 89.64828524 11.66429159 92.40374241 11.67224121 95.15937805 C11.34841154 109.76956826 11.34841154 109.76956826 15.75 123.375 C20.06410406 127.08992294 24.44105854 127.67503966 30 127.3125 C32.26566343 126.87308477 32.26566343 126.87308477 34 126.3125 C33.8125 128.1875 33.8125 128.1875 33 130.3125 C30.5 131.4375 30.5 131.4375 28 132.3125 C27.67 132.9725 27.34 133.6325 27 134.3125 C17.55520822 137.66272803 6.29295775 138.02313938 -2.90625 133.71484375 C-7.43150657 130.68393497 -10.40599108 126.63903496 -11.75 121.375 C-11.8325 120.694375 -11.915 120.01375 -12 119.3125 C-12.66 118.9825 -13.32 118.6525 -14 118.3125 C-16.11217864 119.88570892 -18.20452669 121.47443163 -20.26953125 123.109375 C-37.85897123 136.61892952 -55.15423893 139.8436555 -77 138.3125 C-87.49877609 136.87676994 -96.38869549 131.94909078 -102.875 123.625 C-103.67550781 122.50544922 -103.67550781 122.50544922 -104.4921875 121.36328125 C-105.87257867 119.48580621 -107.3081783 117.90808034 -109 116.3125 C-108.67 115.3225 -108.34 114.3325 -108 113.3125 C-108.19165899 111.3501408 -108.42706977 109.39192137 -108.6875 107.4375 C-109.45897432 98.2003808 -107.33838455 90.04775639 -101.875 82.5 C-94.52182293 73.95526332 -85.04845504 67.00464607 -74 64.3125 C-69.47042764 63.11170161 -64.94627096 61.8911277 -60.4230957 60.66650391 C-58.95285504 60.26928043 -57.48216268 59.87372436 -56.01098633 59.47998047 C-32.91017776 54.66973447 -32.91017776 54.66973447 -15 41.3125 C-14.56168907 37.85003846 -14.66793462 34.36224045 -14.6875 30.875 C-14.69168945 29.88177734 -14.69587891 28.88855469 -14.70019531 27.86523438 C-14.87721931 16.34737497 -16.33785485 7.10945813 -24.625 -1.375 C-33.17790477 -7.93787247 -43.81167724 -7.02879617 -54 -6.6875 C-54.33 -6.0275 -54.66 -5.3675 -55 -4.6875 C-55.70125 -4.584375 -56.4025 -4.48125 -57.125 -4.375 C-60.61723734 -3.53989977 -62.65543248 -1.93280451 -65.44921875 0.25390625 C-67 1.3125 -67 1.3125 -69 1.3125 C-69.27714844 1.88226563 -69.55429687 2.45203125 -69.83984375 3.0390625 C-70.59486618 4.5186014 -71.39812609 5.97480322 -72.25390625 7.3984375 C-77.03921675 15.76915975 -78.09560051 24.91038198 -76.25 34.375 C-75.32337227 37.71459123 -74.15466892 40.55452378 -72 43.3125 C-71.01 43.6425 -70.02 43.9725 -69 44.3125 C-69.33 45.3025 -69.66 46.2925 -70 47.3125 C-77.99000131 49.26561143 -85.44148408 47.01672453 -92.5 43 C-96.82746858 39.99997577 -98.40848932 37.03083951 -99.53125 31.87109375 C-100.78659367 23.38545339 -99.11043206 16.53292939 -94.0078125 9.609375 C-71.14700767 -16.81107073 -28.03236937 -20.77837905 0 0 Z M-18.25 50.4375 C-27.34179521 56.20698145 -37.4400127 59.50041373 -47.625 62.75 C-60.13510859 66.79126494 -72.44209516 72.02047052 -79.3125 83.9375 C-83.35291632 92.98033654 -83.91674059 102.89732182 -81 112.3125 C-78.28192839 119.3308043 -73.05806628 123.70006505 -66.5625 127.125 C-62.69139645 128.41536785 -59.04780918 129.05477432 -55 129.3125 C-53.96746094 129.40917969 -53.96746094 129.40917969 -52.9140625 129.5078125 C-41.52154703 130.12473572 -29.24563197 124.49851415 -20.60546875 117.32421875 C-16.24196257 113.14940473 -13.29411214 109.74043092 -12.75949097 103.50932312 C-12.76393219 102.49006241 -12.76837341 101.4708017 -12.77294922 100.4206543 C-12.77310028 99.25982834 -12.77325134 98.09900238 -12.77340698 96.90299988 C-12.78889084 95.03869072 -12.78889084 95.03869072 -12.8046875 93.13671875 C-12.80893234 91.21627495 -12.80893234 91.21627495 -12.81326294 89.2570343 C-12.8208722 85.86546925 -12.84049707 82.4740775 -12.8626709 79.08258057 C-12.88318794 75.61692651 -12.89227714 72.15124425 -12.90234375 68.68554688 C-12.92438508 61.89445634 -12.95784871 55.10349388 -13 48.3125 C-15.36818615 48.13008355 -15.36818615 48.13008355 -18.25 50.4375 Z " fill="#3F281B" transform="translate(838,415.6875)"/>
<path d="M0 0 C5.77087054 5.92684002 7.28555241 12.99818699 8 21 C4.31769446 21 2.6030102 19.86829233 -0.625 18.125 C-5.78804581 15.49710243 -10.27109233 13.75133215 -16 13 C-16.95132813 12.855625 -17.90265625 12.71125 -18.8828125 12.5625 C-31.50707671 11.07364329 -44.91455279 12.98129923 -55.26171875 20.68359375 C-61.64384296 25.92642967 -66.37061085 32.11183255 -69 40 C-69.10644631 42.639473 -69.15724459 45.25292709 -69.16113281 47.89282227 C-69.16609772 48.69649734 -69.17106262 49.50017242 -69.17617798 50.32820129 C-69.19079798 52.99094499 -69.19760341 55.65362898 -69.203125 58.31640625 C-69.20887918 60.17146302 -69.21463688 62.02651979 -69.22039795 63.88157654 C-69.23090926 67.77627845 -69.23675022 71.67095973 -69.24023438 75.56567383 C-69.24570146 80.53637101 -69.26969056 85.50679183 -69.29820633 90.47740269 C-69.31691369 94.31319449 -69.32204273 98.14892101 -69.32357025 101.98475456 C-69.32658204 103.81583088 -69.33456031 105.64690645 -69.34775543 107.4779377 C-69.80545553 121.11332826 -69.80545553 121.11332826 -66 134 C-63.80183195 135.70430472 -63.80183195 135.70430472 -61 136 C-59.90042969 136.28101563 -58.80085938 136.56203125 -57.66796875 136.8515625 C-56.51941406 137.10679687 -55.37085938 137.36203125 -54.1875 137.625 C-53.02605469 137.88539063 -51.86460937 138.14578125 -50.66796875 138.4140625 C-49.34732422 138.70410156 -49.34732422 138.70410156 -48 139 C-48 139.99 -48 140.98 -48 142 C-93.18978067 143.40027356 -93.18978067 143.40027356 -114 142 C-114 141.01 -114 140.02 -114 139 C-113.19175781 138.84144531 -112.38351562 138.68289063 -111.55078125 138.51953125 C-103.0821939 136.71415835 -103.0821939 136.71415835 -97 131 C-92.82068221 122.64136442 -94.83579393 109.09394583 -94.83203125 99.88671875 C-94.82881127 98.02643306 -94.82544666 96.16614761 -94.82194519 94.30586243 C-94.81598149 90.41850193 -94.81410246 86.53116357 -94.81469727 82.64379883 C-94.81479878 77.69495918 -94.80114505 72.74626333 -94.78392506 67.7974577 C-94.77273553 63.9581285 -94.77078017 60.11883334 -94.77130699 56.27948952 C-94.77013739 54.45648516 -94.76577389 52.63347961 -94.75797462 50.81049156 C-94.71316743 39.25732055 -95.18027402 28.27890392 -98 17 C-102.29 16.01 -106.58 15.02 -111 14 C-111 13.34 -111 12.68 -111 12 C-110.4423999 11.78907715 -109.8847998 11.5781543 -109.31030273 11.36083984 C-97.82892574 7.01360249 -86.38057384 2.60502601 -75 -2 C-73.35 -2.66 -71.7 -3.32 -70 -4 C-70 4.91 -70 13.82 -70 23 C-64.95720196 21.08050681 -64.95720196 21.08050681 -62.0625 17.3125 C-61.55332031 16.59835937 -61.04414063 15.88421875 -60.51953125 15.1484375 C-60.01808594 14.43945312 -59.51664062 13.73046875 -59 13 C-55.03763016 7.66385724 -50.67764637 4.16297854 -45.07421875 0.578125 C-42.71791788 -0.90703305 -42.71791788 -0.90703305 -42 -4 C-41.01 -3.67 -40.02 -3.34 -39 -3 C-36.5635803 -3.73195093 -36.5635803 -3.73195093 -33.9375 -4.875 C-21.59274268 -9.5530133 -9.97401986 -9.27977254 0 0 Z M-70 26 C-69.67 26.66 -69.34 27.32 -69 28 C-68.67 27.34 -68.34 26.68 -68 26 C-68.66 26 -69.32 26 -70 26 Z " fill="#3F281C" transform="translate(442,409)"/>
<path d="M0 0 C4.7474657 2.54291899 7.99720348 5.41809424 9.78515625 10.54296875 C11.07696469 15.62460076 11.38918346 19.63560544 9.171875 24.4609375 C6.2547553 28.97714275 2.52732899 31.58786046 -2.31640625 33.78125 C-7.25915894 34.45145375 -11.35551847 34.16511062 -16.00390625 32.28125 C-19.8629046 29.19088171 -22.82619873 25.10985082 -24.00390625 20.28125 C-24.45066686 14.65206629 -24.24695253 11.09351223 -21.00390625 6.28125 C-15.07258841 0.29384405 -8.47980972 -3.0414912 0 0 Z " fill="#40291C" transform="translate(487.00390625,341.71875)"/>
<path d="M0 0 C15.84 0 31.68 0 48 0 C48 0.66 48 1.32 48 2 C32.49 2 16.98 2 1 2 C1 41.6 1 81.2 1 122 C16.84 122.33 32.68 122.66 49 123 C51.31 123.33 53.62 123.66 56 124 C56 124.33 56 124.66 56 125 C37.85 125 19.7 125 1 125 C1.33 147.11 1.66 169.22 2 192 C1.34 192 0.68 192 0 192 C0 195.96 0 199.92 0 204 C-0.33 204 -0.66 204 -1 204 C-1.02333109 177.69701418 -1.04098021 151.39402991 -1.05181217 125.09103584 C-1.05697468 112.87888366 -1.06401653 100.6667379 -1.07543945 88.45458984 C-1.08538766 77.8140045 -1.09185376 67.1734238 -1.09408849 56.53283393 C-1.09539537 50.89556228 -1.09847976 45.25830393 -1.10573006 39.62103653 C-1.11249242 34.32045502 -1.11461651 29.01989236 -1.11310768 23.71930695 C-1.11338391 21.76895165 -1.11538776 19.81859575 -1.11920547 17.86824417 C-1.12414607 15.21520932 -1.1229969 12.56224656 -1.12025452 9.90921021 C-1.12316736 9.12906433 -1.1260802 8.34891846 -1.12908131 7.5451318 C-1.11412121 2.22824242 -1.11412121 2.22824242 0 0 Z " fill="#201009" transform="translate(208,326)"/>
<path d="M0 0 C1.35317077 3.38292692 0.59842888 5.54946167 -0.45734501 8.92362499 C-2.83811179 18.03321528 -2.16751853 28.05098688 -2.20532227 37.38549805 C-2.21492244 38.90434523 -2.2249337 40.42318986 -2.23532104 41.94203186 C-2.26214475 46.03214264 -2.28327497 50.1222647 -2.30332303 54.21241355 C-2.32532312 58.49919882 -2.35264262 62.78595025 -2.37937927 67.07270813 C-2.4291179 75.17549652 -2.47412587 83.27830388 -2.51740164 91.38112909 C-2.56693587 100.61218617 -2.62179351 109.84320927 -2.67708123 119.07423341 C-2.79061187 138.04945733 -2.89751287 157.02471339 -3 176 C-7.10039659 171.89960341 -6.11897341 164.63779999 -6.13552856 159.14039612 C-6.13350433 158.1354863 -6.1314801 157.13057648 -6.12939453 156.09521484 C-6.13114685 155.01957779 -6.13289917 153.94394073 -6.13470459 152.83570862 C-6.13909193 149.29410165 -6.1361965 145.75254494 -6.1328125 142.2109375 C-6.13348634 139.74427277 -6.13445703 137.27760811 -6.13571167 134.8109436 C-6.13718433 129.6480445 -6.13504755 124.48516272 -6.13037109 119.32226562 C-6.12466809 112.70342318 -6.12795917 106.08462123 -6.13394356 99.46578026 C-6.13755569 94.37519017 -6.13640768 89.2846097 -6.13381577 84.19401932 C-6.13314862 81.75315979 -6.13396753 79.31229939 -6.13629532 76.87144089 C-6.13883314 73.46293572 -6.13496547 70.05449636 -6.12939453 66.64599609 C-6.13141876 65.63703781 -6.13344299 64.62807953 -6.13552856 63.58854675 C-6.13129883 62.1924543 -6.13129883 62.1924543 -6.12698364 60.76815796 C-6.12660662 59.96330648 -6.12622959 59.15845501 -6.12584114 58.3292141 C-5.9897097 55.80953511 -5.54969698 53.45990053 -5 51 C-5.97610229 51.06900513 -5.97610229 51.06900513 -6.97192383 51.1394043 C-9.91794244 51.33847027 -12.86491397 51.51324943 -15.8125 51.6875 C-16.83666016 51.76033203 -17.86082031 51.83316406 -18.91601562 51.90820312 C-19.89892578 51.96298828 -20.88183594 52.01777344 -21.89453125 52.07421875 C-22.80050049 52.13182373 -23.70646973 52.18942871 -24.63989258 52.2487793 C-27 52 -27 52 -28.8190918 50.49536133 C-29.2087915 50.00189209 -29.59849121 49.50842285 -30 49 C-29.67 48.01 -29.34 47.02 -29 46 C-21.41 45.67 -13.82 45.34 -6 45 C-5.96261719 43.06898438 -5.92523437 41.13796875 -5.88671875 39.1484375 C-5.8379419 37.22523618 -5.78906124 35.30203624 -5.73754883 33.37890625 C-5.68893606 31.43249854 -5.65383243 29.48576809 -5.61914062 27.5390625 C-4.98628199 4.98628199 -4.98628199 4.98628199 0 0 Z " fill="#1F100A" transform="translate(539,360)"/>
<path d="M0 0 C0.33 0 0.66 0 1 0 C1.16767195 4.92940328 1.32822547 9.85896749 1.48217773 14.78881836 C1.53555698 16.4659652 1.59088316 18.14305124 1.64819336 19.82006836 C1.73021822 22.23017266 1.80524581 24.64040861 1.87890625 27.05078125 C1.90594131 27.80087967 1.93297638 28.55097809 1.96083069 29.32380676 C2.05259138 32.52232554 2.02105583 34.93683252 1 38 C11.53708724 39.03524294 21.97429033 39.1311986 32.55078125 39.09765625 C34.30340026 39.09578656 36.0560198 39.09436527 37.80863953 39.09336853 C42.37712091 39.08958668 46.94556949 39.07979444 51.51403809 39.06866455 C56.193599 39.05835625 60.87316533 39.05385091 65.55273438 39.04882812 C74.70183717 39.03816741 83.85091584 39.02114436 93 39 C93 40.32 93 41.64 93 43 C90.36 43 87.72 43 85 43 C85 42.67 85 42.34 85 42 C43.915 41.505 43.915 41.505 2 41 C2 41.66 2 42.32 2 43 C11.57 43 21.14 43 31 43 C31 43.33 31 43.66 31 44 C20.77 44 10.54 44 0 44 C-0.92645446 41.22063662 -1.10056322 39.74256078 -1.02172852 36.89575195 C-1.00163223 36.07512772 -0.98153595 35.25450348 -0.96083069 34.40901184 C-0.93379562 33.52767075 -0.90676056 32.64632965 -0.87890625 31.73828125 C-0.85529526 30.83248825 -0.83168427 29.92669525 -0.80735779 28.99345398 C-0.73076856 26.09964135 -0.64672369 23.20609952 -0.5625 20.3125 C-0.50927458 18.35092472 -0.45653421 16.38933622 -0.40429688 14.42773438 C-0.27515978 9.61831801 -0.13933558 4.80913127 0 0 Z " fill="#452F23" transform="translate(558,367)"/>
<path d="M0 0 C55.935 0.495 55.935 0.495 113 1 C113 1.66 113 2.32 113 3 C64.985 3.495 64.985 3.495 16 4 C15.67 4.66 15.34 5.32 15 6 C9.72 5.67 4.44 5.34 -1 5 C-0.67 3.35 -0.34 1.7 0 0 Z " fill="#3A271B" transform="translate(161,323)"/>
<path d="M0 0 C2 2 2 2 2 5 C-10.2290631 6.30318749 -22.4641269 6.1455664 -34.74609375 6.1328125 C-37.04810089 6.13348755 -39.35010797 6.13445924 -41.65211487 6.13571167 C-46.45892012 6.13717949 -51.2657067 6.13506387 -56.07250977 6.13037109 C-62.19929462 6.12467762 -68.32603562 6.12795627 -74.45281887 6.13394356 C-79.20148543 6.13757673 -83.95014179 6.13639792 -88.69880867 6.13381577 C-90.95639107 6.13315394 -93.21397443 6.13394855 -95.47155571 6.13629532 C-107.0252811 6.1456718 -118.48877285 6.10855819 -130 5 C-129 3 -129 3 -126.1875 1.8125 C-123.14038924 1.03578549 -121.86250637 0.89903601 -119 2 C-119.33 2.33 -119.66 2.66 -120 3 C-112.48863592 3.05057965 -104.97731551 3.08568257 -97.46582031 3.10986328 C-94.90883747 3.11994038 -92.35186621 3.13360226 -89.79492188 3.15087891 C-86.12627308 3.17505217 -82.45777621 3.18646585 -78.7890625 3.1953125 C-77.64007477 3.20563507 -76.49108704 3.21595764 -75.30728149 3.22659302 C-74.2463327 3.22674408 -73.18538391 3.22689514 -72.09228516 3.22705078 C-70.68663803 3.23371262 -70.68663803 3.23371262 -69.25259399 3.24050903 C-66.79823929 3.2169323 -66.79823929 3.2169323 -65 1 C-62.375 1.375 -62.375 1.375 -60 2 C-60 2.33 -60 2.66 -60 3 C-40.86 3 -21.72 3 -2 3 C-3.32 2.34 -4.64 1.68 -6 1 C-4.7934375 1.0309375 -4.7934375 1.0309375 -3.5625 1.0625 C-1.06645115 1.29633621 -1.06645115 1.29633621 0 0 Z " fill="#553E2E" transform="translate(578,546)"/>
<path d="M0 0 C0.33 0 0.66 0 1 0 C1 2.31 1 4.62 1 7 C20.8 6.67 40.6 6.34 61 6 C58 10 58 10 56 12 C53.6335144 12.24050903 53.6335144 12.24050903 50.63232422 12.22705078 C48.95080765 12.22682419 48.95080765 12.22682419 47.23532104 12.22659302 C46.02071198 12.21627045 44.80610291 12.20594788 43.5546875 12.1953125 C42.31453888 12.1924826 41.07439026 12.18965271 39.79666138 12.18673706 C36.49875367 12.17742174 33.20104028 12.1594489 29.90319824 12.1373291 C26.5383543 12.11687474 23.17348193 12.10773623 19.80859375 12.09765625 C13.20565277 12.07556519 6.60284229 12.04206483 0 12 C0 11.67 0 11.34 0 11 C15.84 10.67 31.68 10.34 48 10 C34.07395069 9.7110647 34.07395069 9.7110647 20.14770508 9.43188477 C18.39663942 9.39374431 16.64558092 9.35527369 14.89453125 9.31640625 C13.5402301 9.2916925 13.5402301 9.2916925 12.15856934 9.26647949 C7.9945086 9.17015062 4.06057568 9.03635038 0 8 C0 5.36 0 2.72 0 0 Z " fill="#4E3426" transform="translate(209,440)"/>
<path d="M0 0 C7.92 0 15.84 0 24 0 C24 0.33 24 0.66 24 1 C16.41 1 8.82 1 1 1 C1.33 1.66 1.66 2.32 2 3 C9.59 3.33 17.18 3.66 25 4 C25 42.94 25 81.88 25 122 C24.34 121.67 23.68 121.34 23 121 C22.97663051 106.61375482 22.95906741 92.22751259 22.94818783 77.84125233 C22.94296651 71.16133192 22.93588243 64.48142674 22.92456055 57.80151367 C22.91370507 51.3565375 22.90771749 44.91157359 22.90512276 38.46658897 C22.90327332 36.00618992 22.89966192 33.54579156 22.89426994 31.08539772 C22.88702428 27.64261035 22.88601056 24.19987383 22.88647461 20.75708008 C22.88287933 19.73712448 22.87928406 18.71716888 22.87557983 17.66630554 C22.8769545 16.72546112 22.87832916 15.7846167 22.87974548 14.81526184 C22.87882369 14.00131864 22.8779019 13.18737543 22.87695217 12.34876728 C23.00939281 9.8207078 23.44738362 7.46754957 24 5 C23.34926514 5.04600342 22.69853027 5.09200684 22.02807617 5.1394043 C19.08205756 5.33847027 16.13508603 5.51324943 13.1875 5.6875 C11.65125977 5.79674805 11.65125977 5.79674805 10.08398438 5.90820312 C9.10107422 5.96298828 8.11816406 6.01777344 7.10546875 6.07421875 C6.19949951 6.13182373 5.29353027 6.18942871 4.36010742 6.2487793 C2 6 2 6 0.1809082 4.49536133 C-0.2087915 4.00189209 -0.59849121 3.50842285 -1 3 C-0.67 2.01 -0.34 1.02 0 0 Z " fill="#3F2A1D" transform="translate(510,406)"/>
<path d="M0 0 C3.96 0.66 7.92 1.32 12 2 C12 2.99 12 3.98 12 5 C-4.65616495 5.89821607 -21.25969208 6.12573226 -37.9375 6.0625 C-40.28971257 6.05746592 -42.6419262 6.05290645 -44.99414062 6.04882812 C-50.66278433 6.03799439 -56.33138688 6.02141298 -62 6 C-62 4.68 -62 3.36 -62 2 C-61.34 2.33 -60.68 2.66 -60 3 C-58.02893455 3.0913666 -56.05472084 3.11751968 -54.08154297 3.11352539 C-52.84040741 3.11344986 -51.59927185 3.11337433 -50.32052612 3.11329651 C-48.96107951 3.1081895 -47.60163331 3.1029735 -46.2421875 3.09765625 C-44.85499116 3.09579142 -43.46779416 3.09436782 -42.08059692 3.09336853 C-38.42765488 3.08954848 -34.77475252 3.07972255 -31.12182617 3.06866455 C-27.39502499 3.05843944 -23.66821741 3.05386855 -19.94140625 3.04882812 C-12.62758606 3.03809983 -5.31379859 3.02102954 2 3 C2 2.34 2 1.68 2 1 C1.34 0.67 0.68 0.34 0 0 Z " fill="#604837" transform="translate(222,546)"/>
<path d="M0 0 C26.4 0 52.8 0 80 0 C80 0.33 80 0.66 80 1 C64.49 1 48.98 1 33 1 C33 1.66 33 2.32 33 3 C22.11 2.67 11.22 2.34 0 2 C0 1.34 0 0.68 0 0 Z " fill="#27140B" transform="translate(560,408)"/>
<path d="M0 0 C0 8.91 0 17.82 0 27 C1.65 26.34 3.3 25.68 5 25 C5.99 25 6.98 25 8 25 C7.690625 25.886875 7.38125 26.77375 7.0625 27.6875 C5.9652458 30.84104139 5.9652458 30.84104139 5.5625 33.5625 C4.88531904 36.49695082 3.74510964 38.5568465 2 41 C1.34 41 0.68 41 0 41 C-1.30351387 37.04886452 -1.12612281 33.06175257 -1.09765625 28.953125 C-1.0962413 28.18192322 -1.09482635 27.41072144 -1.09336853 26.6161499 C-1.08778534 24.16072662 -1.07523595 21.70539558 -1.0625 19.25 C-1.05748283 17.58203257 -1.0529203 15.91406371 -1.04882812 14.24609375 C-1.03782141 10.16402713 -1.02056836 6.08202919 -1 2 C-2.32 2.33 -3.64 2.66 -5 3 C-3.82137388 0.64274776 -2.79264635 0 0 0 Z M0 30 C0.33 30.66 0.66 31.32 1 32 C1.33 31.34 1.66 30.68 2 30 C1.34 30 0.68 30 0 30 Z " fill="#4F3728" transform="translate(372,405)"/>
<path d="M0 0 C0.33 0 0.66 0 1 0 C1.16767195 4.92940328 1.32822547 9.85896749 1.48217773 14.78881836 C1.53555698 16.4659652 1.59088316 18.14305124 1.64819336 19.82006836 C1.73021822 22.23017266 1.80524581 24.64040861 1.87890625 27.05078125 C1.90594131 27.80087967 1.93297638 28.55097809 1.96083069 29.32380676 C2.05259138 32.52232554 2.02105583 34.93683252 1 38 C4.96 38.66 8.92 39.32 13 40 C13 40.33 13 40.66 13 41 C9.37 41 5.74 41 2 41 C2 41.66 2 42.32 2 43 C11.57 43 21.14 43 31 43 C31 43.33 31 43.66 31 44 C20.77 44 10.54 44 0 44 C-0.92645446 41.22063662 -1.10056322 39.74256078 -1.02172852 36.89575195 C-1.00163223 36.07512772 -0.98153595 35.25450348 -0.96083069 34.40901184 C-0.93379562 33.52767075 -0.90676056 32.64632965 -0.87890625 31.73828125 C-0.85529526 30.83248825 -0.83168427 29.92669525 -0.80735779 28.99345398 C-0.73076856 26.09964135 -0.64672369 23.20609952 -0.5625 20.3125 C-0.50927458 18.35092472 -0.45653421 16.38933622 -0.40429688 14.42773438 C-0.27515978 9.61831801 -0.13933558 4.80913127 0 0 Z " fill="#5F4433" transform="translate(558,367)"/>
<path d="M0 0 C4.92715996 -0.46192125 8.50732625 1.1724717 13 3 C13 3.33 13 3.66 13 4 C-7.46 4 -27.92 4 -49 4 C-48.67 3.34 -48.34 2.68 -48 2 C-31.83 2 -15.66 2 1 2 C0.505 1.01 0.505 1.01 0 0 Z " fill="#200E06" transform="translate(566,546)"/>
<path d="M0 0 C0 10.89 0 21.78 0 33 C-0.66 33 -1.32 33 -2 33 C-2 23.1 -2 13.2 -2 3 C-4.31 3.33 -6.62 3.66 -9 4 C-9 3.34 -9 2.68 -9 2 C-2.25 0 -2.25 0 0 0 Z " fill="#27150C" transform="translate(371,407)"/>
<path d="M0 0 C0.66 0 1.32 0 2 0 C2 0.66 2 1.32 2 2 C18.5 1.67 35 1.34 52 1 C52.495 1.99 52.495 1.99 53 3 C32.87 3 12.74 3 -8 3 C-8 2.67 -8 2.34 -8 2 C-6.865625 1.855625 -5.73125 1.71125 -4.5625 1.5625 C-1.19222799 1.38828522 -1.19222799 1.38828522 0 0 Z " fill="#1D0C04" transform="translate(459,547)"/>
<path d="M0 0 C0.33 0 0.66 0 1 0 C1.33 2.97 1.66 5.94 2 9 C3.32 8.67 4.64 8.34 6 8 C5.54917531 9.46067199 5.08906463 10.91848032 4.625 12.375 C4.36976563 13.18710937 4.11453125 13.99921875 3.8515625 14.8359375 C3 17 3 17 1 19 C1 18.34 1 17.68 1 17 C-0.65 17.33 -2.3 17.66 -4 18 C-4.33 17.34 -4.66 16.68 -5 16 C-4.34 16 -3.68 16 -3 16 C-2.01 10.72 -1.02 5.44 0 0 Z " fill="#462F22" transform="translate(664,553)"/>
<path d="M0 0 C6.93 0.495 6.93 0.495 14 1 C12.68 1.99 11.36 2.98 10 4 C10.33 4.99 10.66 5.98 11 7 C-0.52164009 7.18451025 -0.52164009 7.18451025 -6 6 C-6 5.67 -6 5.34 -6 5 C-4.02 4.34 -2.04 3.68 0 3 C0 2.01 0 1.02 0 0 Z " fill="#4C3425" transform="translate(593,321)"/>
<path d="M0 0 C2.31 0.66 4.62 1.32 7 2 C5.18346735 4.55965964 3.67805744 5.83131795 0.61328125 6.59375 C-4.40426375 7.23833972 -4.40426375 7.23833972 -7 7 C-8.80859375 5.50390625 -8.80859375 5.50390625 -10 4 C-6.5980513 1.90649311 -3.94727588 1.82057837 0 2 C0 1.34 0 0.68 0 0 Z " fill="#321E13" transform="translate(589,320)"/>
<path d="M0 0 C-0.46800711 4.05606165 -0.87953208 7.46588679 -3 11 C-4.32 10.67 -5.64 10.34 -7 10 C-7.22432841 6.70985003 -7.30380397 4.57722754 -5.75 1.625 C-4 0 -4 0 0 0 Z " fill="#301C11" transform="translate(665,570)"/>
<path d="M0 0 C0.66 0.33 1.32 0.66 2 1 C3.48012824 1.11786691 4.96516466 1.17692938 6.44970703 1.20532227 C7.37051056 1.22526749 8.29131409 1.24521271 9.24002075 1.26576233 C10.23589203 1.28247482 11.23176331 1.29918732 12.2578125 1.31640625 C13.78509476 1.3475779 13.78509476 1.3475779 15.3432312 1.37937927 C18.60375055 1.44489466 21.86435206 1.50376902 25.125 1.5625 C27.33203983 1.60568332 29.53907128 1.64929755 31.74609375 1.69335938 C37.16397501 1.80057805 42.58193846 1.90234074 48 2 C48 2.33 48 2.66 48 3 C32.16 3.33 16.32 3.66 0 4 C0 2.68 0 1.36 0 0 Z " fill="#402B1E" transform="translate(160,548)"/>
<path d="M0 0 C7.92 0 15.84 0 24 0 C24 0.33 24 0.66 24 1 C16.41 1 8.82 1 1 1 C1.33 1.66 1.66 2.32 2 3 C9.26 3.33 16.52 3.66 24 4 C24 4.33 24 4.66 24 5 C20.39715934 5.25470125 16.79301891 5.47435483 13.1875 5.6875 C11.65125977 5.79674805 11.65125977 5.79674805 10.08398438 5.90820312 C9.10107422 5.96298828 8.11816406 6.01777344 7.10546875 6.07421875 C6.19949951 6.13182373 5.29353027 6.18942871 4.36010742 6.2487793 C2 6 2 6 0.1809082 4.49536133 C-0.2087915 4.00189209 -0.59849121 3.50842285 -1 3 C-0.67 2.01 -0.34 1.02 0 0 Z " fill="#755845" transform="translate(510,406)"/>
<path d="M0 0 C4.5240647 3.6477819 6.13919001 8.3870641 8.25 13.625 C8.61351562 14.49640625 8.97703125 15.3678125 9.3515625 16.265625 C12 22.69754464 12 22.69754464 12 25 C11.34 25 10.68 25 10 25 C4.94434833 17.74682507 2.17829523 8.51515407 0 0 Z " fill="#301E14" transform="translate(660,485)"/>
<path d="M0 0 C-1.35418116 2.9221804 -2.92796137 5.30185504 -4.9375 7.8125 C-7.68833689 11.39733145 -9.41713911 14.77903764 -11 19 C-11.66 19 -12.32 19 -13 19 C-13.33 19.66 -13.66 20.32 -14 21 C-13.48286465 16.32509647 -12.26531616 13.29416375 -9.6875 9.375 C-9.09324219 8.45460938 -8.49898437 7.53421875 -7.88671875 6.5859375 C-3.081571 0 -3.081571 0 0 0 Z " fill="#2E1D13" transform="translate(554,338)"/>
<path d="M0 0 C0.33 0 0.66 0 1 0 C1 10.56 1 21.12 1 32 C0.34 32 -0.32 32 -1 32 C-1.16798051 29.72926348 -1.33434113 27.45840707 -1.5 25.1875 C-1.5928125 23.92292969 -1.685625 22.65835937 -1.78125 21.35546875 C-1.91914781 19.24021483 -2 17.11974408 -2 15 C-1.34 15 -0.68 15 0 15 C0 10.05 0 5.1 0 0 Z " fill="#271710" transform="translate(826,463)"/>
<path d="M0 0 C8.27694969 0.15616886 14.85063051 4.0727595 20.82421875 9.7265625 C21.40623047 10.35691406 21.40623047 10.35691406 22 11 C16.80771145 10.42770367 12.6896297 7.9017839 8.1875 5.4375 C7.39923828 5.01275391 6.61097656 4.58800781 5.79882812 4.15039062 C3.8626622 3.10603446 1.92994633 2.0557923 0 1 C0 0.67 0 0.34 0 0 Z " fill="#342117" transform="translate(289,329)"/>
<path d="M0 0 C8.71526186 1.18019171 16.96740883 4.72555662 24 10 C21 11 21 11 18.3984375 9.890625 C17.40070313 9.34921875 16.40296875 8.8078125 15.375 8.25 C10.31699477 5.60408486 5.4603413 3.63810239 0 2 C0 1.34 0 0.68 0 0 Z " fill="#331F15" transform="translate(260,327)"/>
<path d="M0 0 C7.59 0 15.18 0 23 0 C23 0.33 23 0.66 23 1 C21.865625 1.12375 20.73125 1.2475 19.5625 1.375 C17.7990625 1.684375 17.7990625 1.684375 16 2 C15.67 2.66 15.34 3.32 15 4 C13.33388095 4.042721 11.66617115 4.04063832 10 4 C9.67 3.67 9.34 3.34 9 3 C7.48530552 2.76807135 5.96245438 2.58784762 4.4375 2.4375 C3.61121094 2.35371094 2.78492188 2.26992188 1.93359375 2.18359375 C1.29550781 2.12300781 0.65742188 2.06242187 0 2 C0 1.34 0 0.68 0 0 Z " fill="#25140B" transform="translate(161,325)"/>
<path d="M0 0 C0.33 0 0.66 0 1 0 C1.08636719 0.75023437 1.17273438 1.50046875 1.26171875 2.2734375 C2.28072934 9.69632201 4.24555296 15.52286235 8 22 C7 23 7 23 4.4375 23.0625 C3.633125 23.041875 2.82875 23.02125 2 23 C2.20625 22.401875 2.4125 21.80375 2.625 21.1875 C3.30671915 18.71549154 3.30671915 18.71549154 1 16 C-0.28954402 10.71286952 -0.09612723 5.40448662 0 0 Z " fill="#311C11" transform="translate(758,438)"/>
<path d="M0 0 C3.95570528 0.58603041 6.15810357 2.22741812 9 5 C12.35662595 9.82400341 14.77553668 13.95081389 14 20 C11.80299459 17.80299459 11.01887053 15.69922797 9.84375 12.8671875 C7.51342556 7.71026581 4.07688533 3.8503917 0 0 Z " fill="#342217" transform="translate(832,414)"/>
<path d="M0 0 C0.66 0 1.32 0 2 0 C2 6.93 2 13.86 2 21 C1.01 21 0.02 21 -1 21 C-0.67 14.07 -0.34 7.14 0 0 Z " fill="#322117" transform="translate(330,378)"/>
<path d="M0 0 C2 2 2 2 2.23046875 5.5546875 C2.22647567 6.99485736 2.21171192 8.43502815 2.1875 9.875 C2.18685547 10.59558594 2.18621094 11.31617188 2.18554688 12.05859375 C2.15701391 15.50157166 2.07655309 18.71005376 1 22 C0.34 22 -0.32 22 -1 22 C-0.67 14.74 -0.34 7.48 0 0 Z " fill="#291910" transform="translate(623,350)"/>
<path d="M0 0 C0 0.66 0 1.32 0 2 C-6.6 2.33 -13.2 2.66 -20 3 C-19.01 2.67 -18.02 2.34 -17 2 C-17 1.34 -17 0.68 -17 0 C-11.0885256 -0.77313045 -5.8685408 -1.14819277 0 0 Z " fill="#331E15" transform="translate(431,402)"/>
<path d="M0 0 C1.98 0.66 3.96 1.32 6 2 C6 3.32 6 4.64 6 6 C5.34 5.67 4.68 5.34 4 5 C3.401875 5.515625 2.80375 6.03125 2.1875 6.5625 C1.465625 7.036875 0.74375 7.51125 0 8 C-0.99 7.67 -1.98 7.34 -3 7 C-2.67 6.34 -2.34 5.68 -2 5 C-2.66 4.67 -3.32 4.34 -4 4 C-2.68 2.68 -1.36 1.36 0 0 Z " fill="#4C3426" transform="translate(820,529)"/>
<path d="M0 0 C0.33 0 0.66 0 1 0 C2.0712828 6.02596573 2.09945415 11.88909517 2 18 C-0.77247488 13.84128769 -1.13686992 11.91693056 -1.125 6.9375 C-1.12757813 5.85339844 -1.13015625 4.76929688 -1.1328125 3.65234375 C-1 1 -1 1 0 0 Z " fill="#301D13" transform="translate(754,510)"/>
<path d="M0 0 C0.33 1.32 0.66 2.64 1 4 C-5.625 7 -5.625 7 -9 7 C-9 5.68 -9 4.36 -9 3 C-6.03 2.01 -3.06 1.02 0 0 Z " fill="#352115" transform="translate(810,468)"/>
<path d="M0 0 C5.28 0 10.56 0 16 0 C15.67 0.99 15.34 1.98 15 3 C8.94474232 4.38766322 5.67989374 3.49118146 0 1 C0 0.67 0 0.34 0 0 Z " fill="#442E21" transform="translate(753,460)"/>
<path d="M0 0 C2.86698759 3.40939065 4.5083429 7.17027016 6.1875 11.25 C6.46013672 11.8996875 6.73277344 12.549375 7.01367188 13.21875 C7.68076842 14.81041896 8.34107445 16.40493103 9 18 C8.01 18 7.02 18 6 18 C4.98819502 15.94326547 3.99098523 13.87934652 3 11.8125 C2.443125 10.66394531 1.88625 9.51539063 1.3125 8.33203125 C0.08236325 5.20909481 -0.29804612 3.29713518 0 0 Z " fill="#2D1B13" transform="translate(613,432)"/>
<path d="M0 0 C0.66 0 1.32 0 2 0 C2 4.95 2 9.9 2 15 C1.34 15 0.68 15 0 15 C-0.19601608 13.25093341 -0.38147403 11.50068154 -0.5625 9.75 C-0.66691406 8.77546875 -0.77132812 7.8009375 -0.87890625 6.796875 C-0.98974468 4.2368648 -0.77738092 2.41851841 0 0 Z " fill="#342016" transform="translate(739,435)"/>
<path d="M0 0 C0.66 0.33 1.32 0.66 2 1 C1.67 2.32 1.34 3.64 1 5 C1.99 5.33 2.98 5.66 4 6 C1.6875 8.0625 1.6875 8.0625 -1 10 C-1.99 9.67 -2.98 9.34 -4 9 C-3.52418802 7.68628013 -3.04424851 6.37405454 -2.5625 5.0625 C-2.29566406 4.33160156 -2.02882813 3.60070312 -1.75390625 2.84765625 C-1 1 -1 1 0 0 Z " fill="#352014" transform="translate(623,622)"/>
<path d="M0 0 C0.66 0 1.32 0 2 0 C1.40158509 3.26604763 0.3410922 5.17406707 -1.8125 7.6875 C-2.31394531 8.28949219 -2.81539062 8.89148438 -3.33203125 9.51171875 C-5.21042495 11.18775622 -6.54277844 11.6002351 -9 12 C-7.97895872 9.53248357 -7.2325011 8.17250081 -5.0625 6.5625 C-2.60549516 4.70113269 -1.56046385 2.62441648 0 0 Z " fill="#322016" transform="translate(183,535)"/>
<path d="M0 0 C0.99 0.33 1.98 0.66 3 1 C2.29875 1.639375 1.5975 2.27875 0.875 2.9375 C-2.71636823 6.49799687 -5.30436965 10.74812946 -8 15 C-8.671875 13.25390625 -8.671875 13.25390625 -9 11 C-7.890625 8.96484375 -7.890625 8.96484375 -6.25 6.9375 C-5.71890625 6.26589844 -5.1878125 5.59429687 -4.640625 4.90234375 C-3.15920516 3.18460218 -1.63001263 1.57600619 0 0 Z " fill="#271710" transform="translate(750,419)"/>
<path d="M0 0 C0.66 0 1.32 0 2 0 C2 0.66 2 1.32 2 2 C2.515625 1.835 3.03125 1.67 3.5625 1.5 C6.73363876 0.84951 9.77218334 0.9379266 13 1 C12.67 2.65 12.34 4.3 12 6 C10.1838018 5.57811541 8.37205927 5.13700835 6.5625 4.6875 C5.55316406 4.44386719 4.54382813 4.20023437 3.50390625 3.94921875 C2.26447266 3.47935547 2.26447266 3.47935547 1 3 C0.67 2.01 0.34 1.02 0 0 Z " fill="#452E20" transform="translate(699,407)"/>
<path d="M0 0 C1.34316248 3.3579062 0.62817826 5.50536729 -0.453125 8.8515625 C-1.54496205 13.14092233 -1.69737311 17.5959823 -2 22 C-4.72854739 18.11080186 -3.88477951 14.31052183 -3.25 9.875 C-3.16234375 9.14667969 -3.0746875 8.41835938 -2.984375 7.66796875 C-2.26535848 2.26535848 -2.26535848 2.26535848 0 0 Z " fill="#2C1B13" transform="translate(539,360)"/>
<path d="M0 0 C0.66 0 1.32 0 2 0 C2.33 2.64 2.66 5.28 3 8 C1.35 8.66 -0.3 9.32 -2 10 C-1.54177532 6.53058454 -1.10868317 3.32604951 0 0 Z " fill="#2F1B11" transform="translate(701,467)"/>
<path d="M0 0 C3.63 0 7.26 0 11 0 C11 1.32 11 2.64 11 4 C8.36 4 5.72 4 3 4 C3.33 3.01 3.66 2.02 4 1 C2.68 0.67 1.36 0.34 0 0 Z " fill="#493428" transform="translate(640,406)"/>
<path d="M0 0 C3.32791006 0.60126106 3.90981621 0.89478558 6.25 3.625 C8.21887045 7.42210731 8.33722141 9.78473241 8 14 C7.01 14.495 7.01 14.495 6 15 C5.9071875 13.2365625 5.9071875 13.2365625 5.8125 11.4375 C5.23325089 6.51388254 3.08603895 3.79820179 0 0 Z " fill="#2E1C13" transform="translate(489,345)"/>
<path d="M0 0 C0 0.66 0 1.32 0 2 C2.64 2 5.28 2 8 2 C4.67499687 4.21666876 2.96276172 4.77137913 -1 5 C-3.50212761 4.21620099 -5.64057138 3.17971431 -8 2 C-4.91190305 0.23537317 -3.76687864 0 0 0 Z " fill="#462E1F" transform="translate(787,475)"/>
<path d="M0 0 C0.66 0 1.32 0 2 0 C0.45454854 5.47932789 -2.15543212 10.11429181 -5 15 C-5.66 14.67 -6.32 14.34 -7 14 C-5.23570801 9.02790438 -2.6060834 4.56561939 0 0 Z " fill="#301E14" transform="translate(299,418)"/>
<path d="M0 0 C0.33 0.66 0.66 1.32 1 2 C0.0625 4.625 0.0625 4.625 -1 7 C-1.66 6.67 -2.32 6.34 -3 6 C-3.33 6.66 -3.66 7.32 -4 8 C-6.0625 8.625 -6.0625 8.625 -8 9 C-7.34 6.69 -6.68 4.38 -6 2 C-4.68 2.33 -3.36 2.66 -2 3 C-2 2.34 -2 1.68 -2 1 C-1.34 0.67 -0.68 0.34 0 0 Z " fill="#452C20" transform="translate(697,491)"/>
<path d="M0 0 C0.33 0 0.66 0 1 0 C1.82200425 6.24723226 -1.07448606 10.71317837 -4 16 C-4.99 15.67 -5.98 15.34 -7 15 C-6.36771484 13.75283203 -6.36771484 13.75283203 -5.72265625 12.48046875 C-5.17480469 11.39378906 -4.62695312 10.30710937 -4.0625 9.1875 C-3.51722656 8.10855469 -2.97195313 7.02960938 -2.41015625 5.91796875 C-0.9414793 3.03788473 -0.9414793 3.03788473 0 0 Z " fill="#2A1911" transform="translate(327,408)"/>
<path d="M0 0 C0.680625 0.00773438 1.36125 0.01546875 2.0625 0.0234375 C3.0834375 0.01183594 3.0834375 0.01183594 4.125 0 C6.0625 0.3984375 6.0625 0.3984375 9.0625 3.3984375 C4.4425 3.3984375 -0.1775 3.3984375 -4.9375 3.3984375 C-1.9375 0.3984375 -1.9375 0.3984375 0 0 Z " fill="#2C1A11" transform="translate(382.9375,546.6015625)"/>
<path d="M0 0 C0.66 0.33 1.32 0.66 2 1 C1.71831703 2.95979427 1.42433283 4.91782378 1.125 6.875 C0.96257813 7.96554687 0.80015625 9.05609375 0.6328125 10.1796875 C0 13 0 13 -2 15 C-2.05429959 13.25034642 -2.09292823 11.50020213 -2.125 9.75 C-2.15980469 8.28820312 -2.15980469 8.28820312 -2.1953125 6.796875 C-1.99862781 3.9803502 -1.44568916 2.39050964 0 0 Z " fill="#2A1810" transform="translate(732,507)"/>
<path d="M0 0 C0 0.99 0 1.98 0 3 C0.99 3.66 1.98 4.32 3 5 C1.375 6.625 1.375 6.625 -1 8 C-4.25 7.1875 -4.25 7.1875 -7 6 C-5.62209707 3.24419414 -3.62850007 2.51138754 -1 1 C-0.67 0.67 -0.34 0.34 0 0 Z " fill="#4E3627" transform="translate(822,459)"/>
<path d="M0 0 C0.66 0 1.32 0 2 0 C3.54296875 2.08203125 3.54296875 2.08203125 5.1875 4.8125 C5.73792969 5.70582031 6.28835938 6.59914063 6.85546875 7.51953125 C8 10 8 10 7 13 C0 4.25 0 4.25 0 0 Z " fill="#352117" transform="translate(605,419)"/>
<path d="M0 0 C0.99 0.33 1.98 0.66 3 1 C-0.63 4.3 -4.26 7.6 -8 11 C-8 6.67750434 -5.85084926 5.11604454 -3 2 C-2.01 1.34 -1.02 0.68 0 0 Z " fill="#2D1C13" transform="translate(392,413)"/>
<path d="M0 0 C4.92715996 -0.46192125 8.50732625 1.1724717 13 3 C13 3.33 13 3.66 13 4 C9.37 4 5.74 4 2 4 C1.34 2.68 0.68 1.36 0 0 Z " fill="#29170D" transform="translate(566,546)"/>
<path d="M0 0 C0.90685547 0.29777344 0.90685547 0.29777344 1.83203125 0.6015625 C1.32671875 0.93929688 0.82140625 1.27703125 0.30078125 1.625 C-0.34890625 2.07101562 -0.99859375 2.51703125 -1.66796875 2.9765625 C-2.31765625 3.41742188 -2.96734375 3.85828125 -3.63671875 4.3125 C-4.14203125 4.73789062 -4.64734375 5.16328125 -5.16796875 5.6015625 C-5.16796875 6.2615625 -5.16796875 6.9215625 -5.16796875 7.6015625 C-6.15796875 7.9315625 -7.14796875 8.2615625 -8.16796875 8.6015625 C-7.87536725 5.09034453 -7.35800595 3.79673584 -4.85546875 1.2265625 C-2.16796875 -0.3984375 -2.16796875 -0.3984375 0 0 Z " fill="#311E14" transform="translate(749.16796875,488.3984375)"/>
<path d="M0 0 C3.44647936 0.61859886 4.08819779 1.08819779 6.75 3.75 C9.01128327 7.01629806 9.56337087 8.1690781 9 12 C6 8 3 4 0 0 Z " fill="#2E1D13" transform="translate(437,407)"/>
<path d="M0 0 C0.66 0.33 1.32 0.66 2 1 C1.67 2.32 1.34 3.64 1 5 C-6.75 6.125 -6.75 6.125 -9 5 C-9 4.34 -9 3.68 -9 3 C-7.02 3 -5.04 3 -3 3 C-2.67 2.34 -2.34 1.68 -2 1 C-1.34 0.67 -0.68 0.34 0 0 Z " fill="#4E3628" transform="translate(745,405)"/>
<path d="M0 0 C1.32 0 2.64 0 4 0 C3.67 1.32 3.34 2.64 3 4 C3.66 4 4.32 4 5 4 C4.67 4.99 4.34 5.98 4 7 C2.02 6.01 0.04 5.02 -2 4 C-1.34 2.68 -0.68 1.36 0 0 Z " fill="#352115" transform="translate(570,326)"/>
<path d="M0 0 C0 0.66 0 1.32 0 2 C-1.61992165 2.86375896 -3.24611861 3.71575854 -4.875 4.5625 C-6.23238281 5.27599609 -6.23238281 5.27599609 -7.6171875 6.00390625 C-8.40351562 6.33261719 -9.18984375 6.66132812 -10 7 C-10.66 6.67 -11.32 6.34 -12 6 C-8.08394163 1.80422318 -5.83338839 0 0 0 Z " fill="#311E15" transform="translate(547,582)"/>
<path d="M0 0 C3.17218843 3.62535821 4.42902597 7.51150278 6 12 C5.34 12.66 4.68 13.32 4 14 C3.80664062 13.36191406 3.61328125 12.72382812 3.4140625 12.06640625 C3.15367187 11.24011719 2.89328125 10.41382813 2.625 9.5625 C2.36976563 8.73878906 2.11453125 7.91507813 1.8515625 7.06640625 C1.19117773 4.82201984 1.19117773 4.82201984 -1 4 C-0.67 2.68 -0.34 1.36 0 0 Z " fill="#301E14" transform="translate(654,523)"/>
<path d="M0 0 C3 1 3 1 4.203125 2.9609375 C4.54859375 3.75757813 4.8940625 4.55421875 5.25 5.375 C5.60578125 6.16648437 5.9615625 6.95796875 6.328125 7.7734375 C7 10 7 10 6 13 C4.1727089 10.25906335 3.06301822 7.86174676 1.875 4.8125 C1.52179687 3.91144531 1.16859375 3.01039063 0.8046875 2.08203125 C0.53914062 1.39496094 0.27359375 0.70789063 0 0 Z " fill="#2F1E14" transform="translate(646,454)"/>
<path d="M0 0 C0.33 0.66 0.66 1.32 1 2 C1.66 2 2.32 2 3 2 C3.33 4.64 3.66 7.28 4 10 C1 10 1 10 -1 9 C-1 8.34 -1 7.68 -1 7 C-0.34 7 0.32 7 1 7 C0.67 4.69 0.34 2.38 0 0 Z " fill="#362318" transform="translate(446,420)"/>
<path d="M0 0 C0.99 0.33 1.98 0.66 3 1 C4.33599181 4.00598158 5.14345053 6.09147996 4.625 9.375 C4.41875 9.91125 4.2125 10.4475 4 11 C0 4.5 0 4.5 0 0 Z " fill="#332117" transform="translate(370,532)"/>
<path d="M0 0 C0.66 0 1.32 0 2 0 C2.99 3.3 3.98 6.6 5 10 C4.34 10 3.68 10 3 10 C2.34 8.68 1.68 7.36 1 6 C0.01 6 -0.98 6 -2 6 C-1.49396008 3.83125748 -1.00016187 2.00032373 0 0 Z " fill="#2A180F" transform="translate(823,525)"/>
<path d="M0 0 C4.43601966 3.51822249 5.52033129 7.75390186 7 13 C6.34 13 5.68 13 5 13 C4.16209211 11.21046815 3.32980604 9.41830305 2.5 7.625 C1.80390625 6.12839844 1.80390625 6.12839844 1.09375 4.6015625 C0 2 0 2 0 0 Z " fill="#2D1B13" transform="translate(653,469)"/>
<path d="M0 0 C0 0.66 0 1.32 0 2 C-1.26691507 2.67408308 -2.53870749 3.33900497 -3.8125 4 C-4.52019531 4.37125 -5.22789062 4.7425 -5.95703125 5.125 C-8 6 -8 6 -11 6 C-5.15384615 0 -5.15384615 0 0 0 Z " fill="#2C1B11" transform="translate(765,411)"/>
<path d="M0 0 C0.66 0.66 1.32 1.32 2 2 C1.01 2.495 1.01 2.495 0 3 C-0.33 3.99 -0.66 4.98 -1 6 C-2.65 5.67 -4.3 5.34 -6 5 C-5.67 4.01 -5.34 3.02 -5 2 C-2.4375 0.8125 -2.4375 0.8125 0 0 Z " fill="#2C1A10" transform="translate(818,533)"/>
<path d="M0 0 C-2.88628401 1.57554035 -5.53342384 2.46276373 -8.75 3.125 C-9.94882812 3.37636719 -9.94882812 3.37636719 -11.171875 3.6328125 C-11.77515625 3.75398438 -12.3784375 3.87515625 -13 4 C-12.67 3.01 -12.34 2.02 -12 1 C-8.32433144 -0.61729417 -3.92760325 -0.06546005 0 0 Z " fill="#301D12" transform="translate(783,477)"/>
<path d="M0 0 C0.33 0.99 0.66 1.98 1 3 C0.67 3.66 0.34 4.32 0 5 C0.66 5 1.32 5 2 5 C2.66 3.35 3.32 1.7 4 0 C4.625 1.8125 4.625 1.8125 5 4 C4.01 5.485 4.01 5.485 3 7 C1.68 7 0.36 7 -1 7 C-1.04254356 5.00045254 -1.04080783 2.99958364 -1 1 C-0.67 0.67 -0.34 0.34 0 0 Z " fill="#2A1910" transform="translate(710,445)"/>
<path d="M0 0 C3.8665284 3.222107 4.88059018 6.14922412 6 11 C5.01 11.495 5.01 11.495 4 12 C3.3291288 10.3767313 2.66342971 8.75132422 2 7.125 C1.62875 6.22007812 1.2575 5.31515625 0.875 4.3828125 C0 2 0 2 0 0 Z " fill="#2F1D13" transform="translate(640,439)"/>
<path d="M0 0 C2.97526665 2.55022856 4.50122302 5.40293526 6 9 C5.67 9.99 5.34 10.98 5 12 C1.75254486 7.86687528 0 5.36067372 0 0 Z " fill="#301E15" transform="translate(295,350)"/>
<path d="M0 0 C1.37195574 1.29355827 2.71182656 2.62298702 4 4 C2.02 4.33 0.04 4.66 -2 5 C-2 4.34 -2 3.68 -2 3 C-3.32 2.67 -4.64 2.34 -6 2 C-6 1.34 -6 0.68 -6 0 C-3 -1 -3 -1 0 0 Z " fill="#473022" transform="translate(581,324)"/>
<path d="M0 0 C-0.1875 1.875 -0.1875 1.875 -1 4 C-3.5625 5.25 -3.5625 5.25 -6 6 C-5.67 5.01 -5.34 4.02 -5 3 C-6.65 3 -8.3 3 -10 3 C-10 2.67 -10 2.34 -10 2 C-8.7090864 1.66376204 -7.41723903 1.33110751 -6.125 1 C-5.40570312 0.814375 -4.68640625 0.62875 -3.9453125 0.4375 C-2 0 -2 0 0 0 Z " fill="#5B4233" transform="translate(872,542)"/>
<path d="M0 0 C3.28788824 3.11016455 5.83735988 6.01618925 8 10 C4.20401451 8.50871999 2.28279601 6.34266559 0 3 C0 2.01 0 1.02 0 0 Z " fill="#2D1B13" transform="translate(849,534)"/>
<path d="M0 0 C0.66 0 1.32 0 2 0 C1.25 4.75 1.25 4.75 -1 7 C-2.32 6.34 -3.64 5.68 -5 5 C-4.34 3.68 -3.68 2.36 -3 1 C-2.01 1.33 -1.02 1.66 0 2 C0 1.34 0 0.68 0 0 Z " fill="#402B1F" transform="translate(689,508)"/>
<path d="M0 0 C3.63 0 7.26 0 11 0 C11 0.33 11 0.66 11 1 C5.77487721 2.46670113 1.4185766 3.22577402 -4 3 C-2.68 2.67 -1.36 2.34 0 2 C0 1.34 0 0.68 0 0 Z " fill="#200F06" transform="translate(796,404)"/>
<path d="M0 0 C0.66 0.33 1.32 0.66 2 1 C4.37123246 1.23029956 6.74741943 1.41119942 9.125 1.5625 C10.40632812 1.64628906 11.68765625 1.73007812 13.0078125 1.81640625 C14.48894531 1.90728516 14.48894531 1.90728516 16 2 C16 2.33 16 2.66 16 3 C8.08 3.495 8.08 3.495 0 4 C0 2.68 0 1.36 0 0 Z " fill="#564032" transform="translate(160,548)"/>
<path d="M0 0 C0.66 0 1.32 0 2 0 C3.32421875 1.6796875 3.32421875 1.6796875 4.6875 3.875 C5.14511719 4.59429688 5.60273438 5.31359375 6.07421875 6.0546875 C6.37972656 6.69664062 6.68523437 7.33859375 7 8 C6.67 8.66 6.34 9.32 6 10 C2.46413986 6.82679218 0.41421969 4.83256305 0 0 Z " fill="#2F1D15" transform="translate(210,535)"/>
<path d="M0 0 C0.99 0 1.98 0 3 0 C3.33 1.32 3.66 2.64 4 4 C3.01 4 2.02 4 1 4 C1 4.66 1 5.32 1 6 C0.01 6.33 -0.98 6.66 -2 7 C-1.125 1.125 -1.125 1.125 0 0 Z " fill="#2F1B11" transform="translate(688,504)"/>
<path d="M0 0 C0.66 0 1.32 0 2 0 C2.99 2.97 3.98 5.94 5 9 C1.98467075 7.99489025 0.81317149 7.53844009 -1 5 C-0.6875 2.3125 -0.6875 2.3125 0 0 Z " fill="#332016" transform="translate(641,495)"/>
<path d="M0 0 C-0.3125 2.375 -0.3125 2.375 -1 5 C-1.99 5.66 -2.98 6.32 -4 7 C-4.66 5.02 -5.32 3.04 -6 1 C-3 0 -3 0 0 0 Z " fill="#2D1A0F" transform="translate(650,599)"/>
<path d="M0 0 C2.00720923 0.28674418 4.0085944 0.61866701 6 1 C5.67 1.99 5.34 2.98 5 4 C1.625 4.625 1.625 4.625 -2 5 C-2.66 4.34 -3.32 3.68 -4 3 C-3.01 2.34 -2.02 1.68 -1 1 C-0.67 0.67 -0.34 0.34 0 0 Z " fill="#644A38" transform="translate(512,547)"/>
<path d="M0 0 C0.33 0 0.66 0 1 0 C1 5.61 1 11.22 1 17 C-0.81248985 13.3750203 -1.31888915 11.62740416 -1.625 7.75 C-1.69976563 6.85796875 -1.77453125 5.9659375 -1.8515625 5.046875 C-1.92503906 4.03367187 -1.92503906 4.03367187 -2 3 C-1.34 3 -0.68 3 0 3 C0 2.01 0 1.02 0 0 Z " fill="#5F4535" transform="translate(760,433)"/>
<path d="M0 0 C3.87132028 0.57352893 6.08172796 2.48704352 9 5 C8.67 6.32 8.34 7.64 8 9 C5.06799526 6.14723863 2.35684596 3.34920216 0 0 Z " fill="#291910" transform="translate(832,414)"/>
<path d="M0 0 C0.33 0 0.66 0 1 0 C1.3125 2.1875 1.3125 2.1875 1 5 C-1.375 7.8125 -1.375 7.8125 -4 10 C-4.66 10 -5.32 10 -6 10 C-5.67 9.01 -5.34 8.02 -5 7 C-4.34 7 -3.68 7 -3 7 C-2.690625 6.21625 -2.38125 5.4325 -2.0625 4.625 C-1 2 -1 2 0 0 Z " fill="#2F1D15" transform="translate(495,362)"/>
<path d="M0 0 C2 1 2 1 2.703125 2.70703125 C2.88359375 3.40183594 3.0640625 4.09664063 3.25 4.8125 C3.44078125 5.49957031 3.6315625 6.18664062 3.828125 6.89453125 C4.04043638 9.49534564 3.32717683 10.7962922 2 13 C1.66127487 11.58461283 1.32925376 10.16762037 1 8.75 C0.814375 7.96109375 0.62875 7.1721875 0.4375 6.359375 C0 4 0 4 0 0 Z " fill="#342117" transform="translate(620,341)"/>
<path d="M0 0 C3.14027363 0.33645789 4.05098295 1.05236086 6.3125 3.375 C6.869375 4.24125 7.42625 5.1075 8 6 C7.67 6.99 7.34 7.98 7 9 C5.83037314 7.69013727 4.66437056 6.3770374 3.5 5.0625 C2.8503125 4.33160156 2.200625 3.60070312 1.53125 2.84765625 C0 1 0 1 0 0 Z " fill="#2E1D14" transform="translate(628,333)"/>
<path d="M0 0 C-0.33 0.99 -0.66 1.98 -1 3 C-4.63 2.67 -8.26 2.34 -12 2 C-12 1.67 -12 1.34 -12 1 C-10.37681021 0.63762737 -8.7513642 0.28534843 -7.125 -0.0625 C-6.22007812 -0.25972656 -5.31515625 -0.45695313 -4.3828125 -0.66015625 C-2 -1 -2 -1 0 0 Z " fill="#4F392A" transform="translate(175,546)"/>
<path d="M0 0 C0.94875 0.350625 1.8975 0.70125 2.875 1.0625 C2.545 1.7225 2.215 2.3825 1.875 3.0625 C-0.105 3.0625 -2.085 3.0625 -4.125 3.0625 C-4.455 2.0725 -4.785 1.0825 -5.125 0.0625 C-3.125 -0.9375 -3.125 -0.9375 0 0 Z " fill="#3E261A" transform="translate(813.125,537.9375)"/>
<path d="M0 0 C0.66 0 1.32 0 2 0 C0.50079488 3.11373372 -1.08152136 6.12228205 -3 9 C-3.66 9 -4.32 9 -5 9 C-3.7580393 5.56072421 -2.44259716 2.74792181 0 0 Z " fill="#2B1B12" transform="translate(730,413)"/>
<path d="M0 0 C-0.33 1.65 -0.66 3.3 -1 5 C-2.32 4.67 -3.64 4.34 -5 4 C-5 3.34 -5 2.68 -5 2 C-5.99 1.67 -6.98 1.34 -8 1 C-5.07175348 0.02391783 -3.04386724 -0.08226668 0 0 Z " fill="#2C170E" transform="translate(608,323)"/>
<path d="M0 0 C1.98 0 3.96 0 6 0 C5.34 1.32 4.68 2.64 4 4 C3.67 3.67 3.34 3.34 3 3 C2.34 4.32 1.68 5.64 1 7 C0.67 7 0.34 7 0 7 C0 4.69 0 2.38 0 0 Z " fill="#472F21" transform="translate(667,554)"/>
<path d="M0 0 C1.65 0 3.3 0 5 0 C5.33 0.99 5.66 1.98 6 3 C3.69 3.33 1.38 3.66 -1 4 C-0.67 2.68 -0.34 1.36 0 0 Z " fill="#351E12" transform="translate(787,474)"/>
<path d="M0 0 C-0.99 1.485 -0.99 1.485 -2 3 C-2.66 3 -3.32 3 -4 3 C-4 3.99 -4 4.98 -4 6 C-4.99 5.67 -5.98 5.34 -7 5 C-6.67 4.34 -6.34 3.68 -6 3 C-6.66 2.34 -7.32 1.68 -8 1 C-2.25 -1.125 -2.25 -1.125 0 0 Z " fill="#4D3425" transform="translate(805,470)"/>
<path d="M0 0 C1 3 1 3 0.22265625 4.82421875 C-0.8515625 6.54947917 -1.92578125 8.27473958 -3 10 C-3.66 10 -4.32 10 -5 10 C-3.84414715 6.08788267 -2.64465038 3.1254959 0 0 Z " fill="#2F1C13" transform="translate(766,418)"/>
<path d="M0 0 C2.96052484 3.36423277 3.92289822 6.69159287 5 11 C4.34 10.67 3.68 10.34 3 10 C3 9.01 3 8.02 3 7 C2.34 7 1.68 7 1 7 C-0.0625 4.625 -0.0625 4.625 -1 2 C-0.67 1.34 -0.34 0.68 0 0 Z " fill="#442F23" transform="translate(324,356)"/>
<path d="M0 0 C0.66 0.66 1.32 1.32 2 2 C0.35 4.31 -1.3 6.62 -3 9 C-3.33 7.68 -3.66 6.36 -4 5 C-2.0625 2.25 -2.0625 2.25 0 0 Z " fill="#2A1A11" transform="translate(531,590)"/>
<path d="M0 0 C0 0.33 0 0.66 0 1 C-4.40914783 2.10228696 -8.48382401 2.07654536 -13 2 C-9.16001987 -2.17389144 -5.07563763 -0.9001665 0 0 Z " fill="#5A4031" transform="translate(790,552)"/>
<path d="M0 0 C0.66 0.33 1.32 0.66 2 1 C4.09821215 0.60061233 4.09821215 0.60061233 6 0 C5.34 2.31 4.68 4.62 4 7 C3.67 5.68 3.34 4.36 3 3 C1.68 3.33 0.36 3.66 -1 4 C-0.67 2.68 -0.34 1.36 0 0 Z " fill="#493224" transform="translate(698,475)"/>
<path d="M0 0 C1.98 0.66 3.96 1.32 6 2 C5.67 2.99 5.34 3.98 5 5 C2.69 4.67 0.38 4.34 -2 4 C-1.34 2.68 -0.68 1.36 0 0 Z " fill="#432C1E" transform="translate(646,596)"/>
<path d="M0 0 C0.99 0 1.98 0 3 0 C2.67 1.65 2.34 3.3 2 5 C1.01 5.33 0.02 5.66 -1 6 C-0.67 4.02 -0.34 2.04 0 0 Z " fill="#382317" transform="translate(654,582)"/>
<path d="M0 0 C0.79921875 0.20367188 1.5984375 0.40734375 2.421875 0.6171875 C3.02515625 0.78476562 3.6284375 0.95234375 4.25 1.125 C4.25 1.455 4.25 1.785 4.25 2.125 C-0.26617599 2.20154536 -4.34085217 2.22728696 -8.75 1.125 C-5.45750312 -0.91393155 -3.7130065 -0.98285466 0 0 Z " fill="#563E2F" transform="translate(764.75,551.875)"/>
<path d="M0 0 C-0.6875 2.375 -0.6875 2.375 -2 5 C-4.625 6.3125 -4.625 6.3125 -7 7 C-7 5 -7 5 -4.625 2.375 C-2 0 -2 0 0 0 Z " fill="#311D14" transform="translate(469,540)"/>
<path d="M0 0 C5.57142857 5.14285714 5.57142857 5.14285714 6 9 C0.42857143 3.85714286 0.42857143 3.85714286 0 0 Z " fill="#2D1A12" transform="translate(756,529)"/>
<path d="M0 0 C2 2 2 2 2.125 5.125 C2.08375 6.07375 2.0425 7.0225 2 8 C1.34 8 0.68 8 0 8 C-0.38063221 5.6739143 -0.71269945 3.33944736 -1 1 C-0.67 0.67 -0.34 0.34 0 0 Z " fill="#2D1A11" transform="translate(681,523)"/>
<path d="M0 0 C1.88391785 3.26545761 2.49287967 6.28111761 3 10 C2.34 10 1.68 10 1 10 C-0.60725635 6.78548731 -0.05748185 3.56387464 0 0 Z " fill="#28170F" transform="translate(526,609)"/>
<path d="M0 0 C1.32 0 2.64 0 4 0 C3.34 1.98 2.68 3.96 2 6 C1.67 5.34 1.34 4.68 1 4 C0.34 4 -0.32 4 -1 4 C-0.67 2.68 -0.34 1.36 0 0 Z " fill="#452D20" transform="translate(660,575)"/>
<path d="M0 0 C0.66 0 1.32 0 2 0 C4.09230769 4.43076923 4.09230769 4.43076923 3.625 7.3125 C3.41875 7.869375 3.2125 8.42625 3 9 C0 3.375 0 3.375 0 0 Z " fill="#311F15" transform="translate(557,534)"/>
<path d="M0 0 C0.33 1.32 0.66 2.64 1 4 C0.01 4 -0.98 4 -2 4 C-2 4.66 -2 5.32 -2 6 C-2.99 6.33 -3.98 6.66 -5 7 C-4.67 5.68 -4.34 4.36 -4 3 C-3.01 3 -2.02 3 -1 3 C-0.67 2.01 -0.34 1.02 0 0 Z " fill="#2E1A0F" transform="translate(694,496)"/>
<path d="M0 0 C1.65 0 3.3 0 5 0 C4.67 0.99 4.34 1.98 4 3 C2.02 3.33 0.04 3.66 -2 4 C-1.34 2.68 -0.68 1.36 0 0 Z " fill="#281810" transform="translate(815,465)"/>
<path d="M0 0 C-0.66 0 -1.32 0 -2 0 C-2 0.66 -2 1.32 -2 2 C-0.68 2.33 0.64 2.66 2 3 C-3.75 3.125 -3.75 3.125 -6 2 C-6 1.34 -6 0.68 -6 0 C-3 -1 -3 -1 0 0 Z " fill="#5D4331" transform="translate(337,421)"/>
<path d="M0 0 C0.66 0 1.32 0 2 0 C5 4.38461538 5 4.38461538 5 7 C3.0625 6.3125 3.0625 6.3125 1 5 C0.25 2.375 0.25 2.375 0 0 Z " fill="#311E15" transform="translate(464,362)"/>
<path d="M0 0 C0.33 0 0.66 0 1 0 C1 1.98 1 3.96 1 6 C0.67 6 0.34 6 0 6 C0 4.02 0 2.04 0 0 Z " fill="#654937" transform="translate(495,522)"/>
<path d="M0 0 C0.99 0.495 0.99 0.495 2 1 C1.34 1.66 0.68 2.32 0 3 C0 2.01 0 1.02 0 0 Z " fill="#6B4D3E" transform="translate(640,600)"/>
<path d="M0 0 C1 4 1 4 1 4 Z " fill="#654836" transform="translate(373,498)"/>
<path d="M0 0 C0.99 1.485 0.99 1.485 2 3 C1.34 3 0.68 3 0 3 C0 2.01 0 1.02 0 0 Z " fill="#694B3A" transform="translate(817,419)"/>
<path d="" fill="#664937" transform="translate(0,0)"/>
<path d="M0 0 C0.99 0.495 0.99 0.495 2 1 C1.01 1.495 1.01 1.495 0 2 C0 1.34 0 0.68 0 0 Z " fill="#694B39" transform="translate(696,474)"/>
<path d="" fill="#644836" transform="translate(0,0)"/>
<path d="M0 0 C0.99 0.495 0.99 0.495 2 1 C1.01 1.495 1.01 1.495 0 2 C0 1.34 0 0.68 0 0 Z " fill="#684A38" transform="translate(696,465)"/>
<path d="M0 0 C0.33 0.66 0.66 1.32 1 2 C0.34 1.67 -0.32 1.34 -1 1 C-0.67 0.67 -0.34 0.34 0 0 Z " fill="#644737" transform="translate(617,448)"/>
<path d="M0 0 C2 1 2 1 2 1 Z " fill="#694F3F" transform="translate(592,632)"/>
<path d="M0 0 C2 1 2 1 2 1 Z " fill="#6E5140" transform="translate(798,551)"/>
<path d="" fill="#705443" transform="translate(0,0)"/>
<path d="" fill="#664A38" transform="translate(0,0)"/>
<path d="" fill="#644939" transform="translate(0,0)"/>
<path d="" fill="#674B39" transform="translate(0,0)"/>
<path d="" fill="#664837" transform="translate(0,0)"/>
<path d="" fill="#684A39" transform="translate(0,0)"/>
<path d="" fill="#644737" transform="translate(0,0)"/>
<path d="" fill="#664A37" transform="translate(0,0)"/>
<path d="M0 0 C2 1 2 1 2 1 Z " fill="#664B38" transform="translate(381,435)"/>
<path d="M0 0 C2 1 2 1 2 1 Z " fill="#634735" transform="translate(280,434)"/>
<path d="M0 0 C2 1 2 1 2 1 Z " fill="#684C39" transform="translate(419,422)"/>
<path d="M0 0 C2 1 2 1 2 1 Z " fill="#694E3B" transform="translate(638,415)"/>
<path d="" fill="#694C3B" transform="translate(0,0)"/>
<path d="M0 0 C2 1 2 1 2 1 Z " fill="#664839" transform="translate(360,408)"/>
<path d="" fill="#694D3B" transform="translate(0,0)"/>
<path d="M0 0 C2 1 2 1 2 1 Z " fill="#6C503E" transform="translate(625,373)"/>
<path d="" fill="#674A3A" transform="translate(0,0)"/>
<path d="M0 0 C2 1 2 1 2 1 Z " fill="#684C3D" transform="translate(464,369)"/>
<path d="" fill="#684A38" transform="translate(0,0)"/>
<path d="M0 0 C2 1 2 1 2 1 Z " fill="#694D3E" transform="translate(273,335)"/>
<path d="" fill="#AAAAA7" transform="translate(0,0)"/>
<path d="" fill="#745847" transform="translate(0,0)"/>
<path d="" fill="#755949" transform="translate(0,0)"/>
<path d="" fill="#725846" transform="translate(0,0)"/>
<path d="" fill="#694F3C" transform="translate(0,0)"/>
<path d="" fill="#624838" transform="translate(0,0)"/>
<path d="" fill="#725947" transform="translate(0,0)"/>
<path d="" fill="#6B513E" transform="translate(0,0)"/>
<path d="" fill="#705547" transform="translate(0,0)"/>
<path d="" fill="#674B3A" transform="translate(0,0)"/>
<path d="" fill="#725745" transform="translate(0,0)"/>
<path d="" fill="#6F5243" transform="translate(0,0)"/>
<path d="" fill="#6B5142" transform="translate(0,0)"/>
<path d="" fill="#725848" transform="translate(0,0)"/>
<path d="" fill="#6B4F3F" transform="translate(0,0)"/>
<path d="" fill="#6A4F3F" transform="translate(0,0)"/>
<path d="" fill="#6A4A3C" transform="translate(0,0)"/>
<path d="" fill="#6A5245" transform="translate(0,0)"/>
<path d="" fill="#6D4F3D" transform="translate(0,0)"/>
<path d="" fill="#6C513E" transform="translate(0,0)"/>
<path d="" fill="#6B4F3E" transform="translate(0,0)"/>
<path d="" fill="#6C5044" transform="translate(0,0)"/>
<path d="" fill="#6F5645" transform="translate(0,0)"/>
<path d="" fill="#6C503E" transform="translate(0,0)"/>
<path d="" fill="#725544" transform="translate(0,0)"/>
<path d="" fill="#6A4E3B" transform="translate(0,0)"/>
<path d="" fill="#7D604C" transform="translate(0,0)"/>
<path d="" fill="#755B48" transform="translate(0,0)"/>
<path d="" fill="#6D5643" transform="translate(0,0)"/>
<path d="" fill="#6B4E3C" transform="translate(0,0)"/>
<path d="" fill="#684C3C" transform="translate(0,0)"/>
<path d="" fill="#6C5242" transform="translate(0,0)"/>
<path d="" fill="#694B3A" transform="translate(0,0)"/>
<path d="" fill="#715546" transform="translate(0,0)"/>
<path d="" fill="#674B3B" transform="translate(0,0)"/>
<path d="" fill="#6A4D3C" transform="translate(0,0)"/>
<path d="" fill="#644A3A" transform="translate(0,0)"/>
<path d="" fill="#614736" transform="translate(0,0)"/>
<path d="" fill="#694B38" transform="translate(0,0)"/>
<path d="" fill="#6A4F3B" transform="translate(0,0)"/>
<path d="" fill="#654E3B" transform="translate(0,0)"/>
<path d="" fill="#6D513E" transform="translate(0,0)"/>
<path d="" fill="#6A4F3E" transform="translate(0,0)"/>
<path d="" fill="#6D4F3E" transform="translate(0,0)"/>
<path d="" fill="#684C3B" transform="translate(0,0)"/>
<path d="" fill="#694B36" transform="translate(0,0)"/>
<path d="" fill="#64493A" transform="translate(0,0)"/>
<path d="" fill="#694A3A" transform="translate(0,0)"/>
<path d="" fill="#6A4F3C" transform="translate(0,0)"/>
<path d="" fill="#664937" transform="translate(0,0)"/>
<path d="" fill="#654A37" transform="translate(0,0)"/>
<path d="" fill="#654838" transform="translate(0,0)"/>
<path d="" fill="#634739" transform="translate(0,0)"/>
<path d="" fill="#664B3A" transform="translate(0,0)"/>
<path d="" fill="#664A38" transform="translate(0,0)"/>
<path d="" fill="#664A39" transform="translate(0,0)"/>
<path d="" fill="#674B38" transform="translate(0,0)"/>
<path d="" fill="#6C4D3D" transform="translate(0,0)"/>
<path d="" fill="#654B38" transform="translate(0,0)"/>
<path d="" fill="#674937" transform="translate(0,0)"/>
<path d="" fill="#684B39" transform="translate(0,0)"/>
<path d="" fill="#644837" transform="translate(0,0)"/>
<path d="" fill="#684C3B" transform="translate(0,0)"/>
<path d="" fill="#684C3B" transform="translate(0,0)"/>
<path d="" fill="#684D3C" transform="translate(0,0)"/>
<path d="" fill="#664B3A" transform="translate(0,0)"/>
<path d="" fill="#654735" transform="translate(0,0)"/>
<path d="" fill="#6C5041" transform="translate(0,0)"/>
<path d="" fill="#6A4D3B" transform="translate(0,0)"/>
<path d="" fill="#664938" transform="translate(0,0)"/>
<path d="" fill="#664D39" transform="translate(0,0)"/>
<path d="" fill="#654937" transform="translate(0,0)"/>
<path d="" fill="#674B38" transform="translate(0,0)"/>
<path d="" fill="#664B3B" transform="translate(0,0)"/>
<path d="" fill="#6F513C" transform="translate(0,0)"/>
<path d="" fill="#674A37" transform="translate(0,0)"/>
<path d="" fill="#644937" transform="translate(0,0)"/>
<path d="" fill="#674B3B" transform="translate(0,0)"/>
<path d="" fill="#70523F" transform="translate(0,0)"/>
<path d="" fill="#644937" transform="translate(0,0)"/>
<path d="" fill="#6B513D" transform="translate(0,0)"/>
<path d="" fill="#65483E" transform="translate(0,0)"/>
<path d="" fill="#674937" transform="translate(0,0)"/>
<path d="" fill="#6E503C" transform="translate(0,0)"/>
<path d="" fill="#6B4E3E" transform="translate(0,0)"/>
<path d="" fill="#6A4F3E" transform="translate(0,0)"/>
<path d="" fill="#6B4A3C" transform="translate(0,0)"/>
<path d="" fill="#634936" transform="translate(0,0)"/>
<path d="" fill="#6C4F3D" transform="translate(0,0)"/>
<path d="" fill="#664B39" transform="translate(0,0)"/>
<path d="" fill="#6B4E3D" transform="translate(0,0)"/>
<path d="" fill="#684A36" transform="translate(0,0)"/>
<path d="" fill="#684A3A" transform="translate(0,0)"/>
<path d="" fill="#674B3A" transform="translate(0,0)"/>
<path d="" fill="#644937" transform="translate(0,0)"/>
<path d="" fill="#674A3A" transform="translate(0,0)"/>
<path d="" fill="#684E3B" transform="translate(0,0)"/>
<path d="" fill="#664A38" transform="translate(0,0)"/>
<path d="" fill="#654938" transform="translate(0,0)"/>
<path d="" fill="#694B3B" transform="translate(0,0)"/>
<path d="" fill="#674B3B" transform="translate(0,0)"/>
<path d="" fill="#644835" transform="translate(0,0)"/>
<path d="" fill="#684B39" transform="translate(0,0)"/>
<path d="" fill="#6A4C39" transform="translate(0,0)"/>
<path d="" fill="#694C3A" transform="translate(0,0)"/>
<path d="" fill="#6A4B38" transform="translate(0,0)"/>
<path d="" fill="#694B3A" transform="translate(0,0)"/>
<path d="" fill="#674B39" transform="translate(0,0)"/>
<path d="" fill="#634736" transform="translate(0,0)"/>
<path d="" fill="#674C3A" transform="translate(0,0)"/>
<path d="" fill="#634736" transform="translate(0,0)"/>
<path d="" fill="#694D3B" transform="translate(0,0)"/>
<path d="" fill="#654A39" transform="translate(0,0)"/>
<path d="" fill="#664835" transform="translate(0,0)"/>
<path d="" fill="#624635" transform="translate(0,0)"/>
<path d="" fill="#654C39" transform="translate(0,0)"/>
<path d="" fill="#644735" transform="translate(0,0)"/>
<path d="" fill="#694B3B" transform="translate(0,0)"/>
<path d="" fill="#62493A" transform="translate(0,0)"/>
<path d="" fill="#6C4C3A" transform="translate(0,0)"/>
<path d="" fill="#684D3B" transform="translate(0,0)"/>
<path d="" fill="#614735" transform="translate(0,0)"/>
<path d="" fill="#624937" transform="translate(0,0)"/>
<path d="" fill="#644738" transform="translate(0,0)"/>
<path d="" fill="#64493A" transform="translate(0,0)"/>
<path d="" fill="#6B4E3F" transform="translate(0,0)"/>
<path d="" fill="#654836" transform="translate(0,0)"/>
<path d="" fill="#674938" transform="translate(0,0)"/>
<path d="" fill="#644A36" transform="translate(0,0)"/>
<path d="" fill="#684C39" transform="translate(0,0)"/>
<path d="" fill="#664B3A" transform="translate(0,0)"/>
<path d="" fill="#634937" transform="translate(0,0)"/>
<path d="" fill="#674B39" transform="translate(0,0)"/>
<path d="" fill="#684C3B" transform="translate(0,0)"/>
<path d="" fill="#674C3A" transform="translate(0,0)"/>
<path d="" fill="#664C3C" transform="translate(0,0)"/>
<path d="" fill="#684B3A" transform="translate(0,0)"/>
<path d="" fill="#684A39" transform="translate(0,0)"/>
<path d="" fill="#6A4D3B" transform="translate(0,0)"/>
<path d="" fill="#664A38" transform="translate(0,0)"/>
<path d="" fill="#634837" transform="translate(0,0)"/>
<path d="" fill="#644A35" transform="translate(0,0)"/>
<path d="" fill="#684B3A" transform="translate(0,0)"/>
<path d="" fill="#644837" transform="translate(0,0)"/>
<path d="" fill="#664938" transform="translate(0,0)"/>
<path d="" fill="#634835" transform="translate(0,0)"/>
<path d="" fill="#684B3B" transform="translate(0,0)"/>
<path d="" fill="#6B4D3E" transform="translate(0,0)"/>
<path d="" fill="#6B4F3C" transform="translate(0,0)"/>
<path d="" fill="#654637" transform="translate(0,0)"/>
<path d="" fill="#6A4B3C" transform="translate(0,0)"/>
<path d="" fill="#664B38" transform="translate(0,0)"/>
<path d="" fill="#6F5342" transform="translate(0,0)"/>
<path d="" fill="#705242" transform="translate(0,0)"/>
<path d="" fill="#684B3A" transform="translate(0,0)"/>
<path d="" fill="#684D3B" transform="translate(0,0)"/>
<path d="" fill="#664A3A" transform="translate(0,0)"/>
<path d="" fill="#6E5341" transform="translate(0,0)"/>
<path d="" fill="#644937" transform="translate(0,0)"/>
<path d="" fill="#715544" transform="translate(0,0)"/>
<path d="" fill="#6B4D3D" transform="translate(0,0)"/>
<path d="" fill="#694D3B" transform="translate(0,0)"/>
<path d="" fill="#6D5240" transform="translate(0,0)"/>
<path d="" fill="#684A38" transform="translate(0,0)"/>
<path d="" fill="#674936" transform="translate(0,0)"/>
<path d="" fill="#694C3C" transform="translate(0,0)"/>
<path d="" fill="#6F5441" transform="translate(0,0)"/>
<path d="" fill="#6D5241" transform="translate(0,0)"/>
<path d="" fill="#6A5140" transform="translate(0,0)"/>
<path d="" fill="#63493A" transform="translate(0,0)"/>
<path d="" fill="#694F3D" transform="translate(0,0)"/>
<path d="" fill="#6A513F" transform="translate(0,0)"/>
<path d="" fill="#6A5140" transform="translate(0,0)"/>
<path d="" fill="#654736" transform="translate(0,0)"/>
<path d="" fill="#6A4F3E" transform="translate(0,0)"/>
<path d="" fill="#664C39" transform="translate(0,0)"/>
<path d="" fill="#684B3A" transform="translate(0,0)"/>
<path d="" fill="#664A3A" transform="translate(0,0)"/>
<path d="" fill="#694B3B" transform="translate(0,0)"/>
<path d="" fill="#705442" transform="translate(0,0)"/>
<path d="" fill="#674939" transform="translate(0,0)"/>
<path d="" fill="#6F5344" transform="translate(0,0)"/>
<path d="" fill="#66493A" transform="translate(0,0)"/>
<path d="" fill="#654938" transform="translate(0,0)"/>
<path d="" fill="#644937" transform="translate(0,0)"/>
<path d="" fill="#684A38" transform="translate(0,0)"/>
<path d="" fill="#684B3A" transform="translate(0,0)"/>
<path d="" fill="#6E5341" transform="translate(0,0)"/>
<path d="" fill="#6E5241" transform="translate(0,0)"/>
<path d="" fill="#6C503C" transform="translate(0,0)"/>
<path d="" fill="#684C3C" transform="translate(0,0)"/>
<path d="" fill="#694C3D" transform="translate(0,0)"/>
<path d="" fill="#6C4F3E" transform="translate(0,0)"/>
<path d="" fill="#6A5141" transform="translate(0,0)"/>
<path d="" fill="#674C39" transform="translate(0,0)"/>
<path d="" fill="#6C513E" transform="translate(0,0)"/>
<path d="" fill="#6D503E" transform="translate(0,0)"/>
<path d="" fill="#644937" transform="translate(0,0)"/>
<path d="" fill="#6A4E3C" transform="translate(0,0)"/>
<path d="" fill="#694A39" transform="translate(0,0)"/>
<path d="" fill="#674C3A" transform="translate(0,0)"/>
<path d="" fill="#6B503E" transform="translate(0,0)"/>
<path d="" fill="#68503F" transform="translate(0,0)"/>
<path d="" fill="#6E5341" transform="translate(0,0)"/>
<path d="" fill="#6B513F" transform="translate(0,0)"/>
<path d="" fill="#695140" transform="translate(0,0)"/>
<path d="" fill="#6A5141" transform="translate(0,0)"/>
<path d="" fill="#6D5341" transform="translate(0,0)"/>
<path d="" fill="#6E5543" transform="translate(0,0)"/>
<path d="" fill="#6C533F" transform="translate(0,0)"/>
<path d="" fill="#725543" transform="translate(0,0)"/>
</svg>
